<svg width="541" height="282" viewBox="0 0 541 282" fill="none" xmlns="http://www.w3.org/2000/svg">
<path d="M288.081 267.385C289.442 267.385 290.122 268.33 290.122 270.295C290.122 271.806 289.253 272.789 288.081 272.789C286.91 272.789 286.078 271.731 286.078 270.144C286.078 268.292 286.758 267.385 288.081 267.385Z" fill="#DDE2CD"/>
<path d="M438.95 264.248C441.104 264.248 442.276 265.76 442.276 268.632C442.276 271.542 440.802 272.827 438.95 272.827C436.872 272.827 435.624 271.542 435.624 268.632C435.624 265.76 436.834 264.248 438.95 264.248Z" fill="#DDE2CD"/>
<path d="M71.2256 267.195C72.1703 267.195 73.0402 267.838 73.0781 269.198H69.4121C69.4878 267.951 70.281 267.195 71.2256 267.195Z" fill="#DDE2CD"/>
<path d="M87.25 271.126C87.25 272.222 86.3429 273.091 85.0957 273.091C84.3399 273.091 83.9619 272.789 83.9619 272.108C83.962 271.315 84.3779 270.937 85.7383 270.673C86.6075 270.522 87.0613 270.408 87.2881 270.144L87.25 271.126Z" fill="#DDE2CD"/>
<path d="M104.295 271.126C104.257 272.222 103.35 273.091 102.141 273.091C101.385 273.091 100.969 272.789 100.969 272.108C100.969 271.315 101.423 270.937 102.783 270.673C103.652 270.522 104.068 270.408 104.295 270.144V271.126Z" fill="#DDE2CD"/>
<path d="M137.666 271.126C137.628 272.222 136.721 273.091 135.512 273.091C134.756 273.091 134.34 272.789 134.34 272.108C134.34 271.315 134.794 270.937 136.154 270.673C137.023 270.522 137.439 270.408 137.666 270.144V271.126Z" fill="#DDE2CD"/>
<path d="M157.696 267.347C159.17 267.347 159.888 268.216 159.888 270.067C159.888 271.881 159.17 272.827 157.696 272.827C156.26 272.827 155.542 271.881 155.542 270.067C155.542 268.216 156.26 267.347 157.696 267.347Z" fill="#DDE2CD"/>
<path d="M177.84 271.126C177.802 272.222 176.895 273.091 175.647 273.091C174.892 273.091 174.514 272.789 174.514 272.108C174.514 271.315 174.93 270.937 176.29 270.673C177.197 270.522 177.613 270.408 177.84 270.144V271.126Z" fill="#DDE2CD"/>
<path d="M205.429 271.126C205.391 272.222 204.484 273.091 203.274 273.091C202.519 273.091 202.103 272.789 202.103 272.108C202.103 271.315 202.557 270.937 203.917 270.673C204.786 270.522 205.202 270.408 205.429 270.144V271.126Z" fill="#DDE2CD"/>
<path d="M235.512 271.126C235.512 272.222 234.604 273.091 233.357 273.091C232.602 273.091 232.224 272.789 232.224 272.108C232.224 271.315 232.64 270.937 234 270.673C234.869 270.522 235.322 270.408 235.549 270.144L235.512 271.126Z" fill="#DDE2CD"/>
<path d="M269.411 267.195C270.356 267.195 271.226 267.838 271.264 269.198H267.598C267.673 267.951 268.467 267.196 269.411 267.195Z" fill="#DDE2CD"/>
<path d="M298.966 271.126C298.928 272.222 298.021 273.091 296.773 273.091C296.018 273.091 295.64 272.789 295.64 272.108C295.64 271.315 296.056 270.937 297.416 270.673C298.323 270.522 298.739 270.408 298.966 270.144V271.126Z" fill="#DDE2CD"/>
<path d="M311.891 271.126C311.853 272.222 310.946 273.091 309.736 273.091C308.981 273.091 308.564 272.789 308.564 272.108C308.565 271.315 309.019 270.937 310.379 270.673C311.248 270.522 311.664 270.408 311.891 270.144V271.126Z" fill="#DDE2CD"/>
<path d="M329.918 267.347C331.241 267.347 331.921 268.33 331.921 270.295C331.921 271.806 331.014 272.864 329.88 272.864C328.708 272.864 327.877 271.731 327.877 270.144C327.877 268.292 328.52 267.347 329.918 267.347Z" fill="#DDE2CD"/>
<path d="M340.688 271.126C340.651 272.222 339.744 273.091 338.497 273.091C337.741 273.091 337.363 272.789 337.363 272.108C337.363 271.315 337.779 270.937 339.14 270.673C340.046 270.522 340.462 270.408 340.688 270.144V271.126Z" fill="#DDE2CD"/>
<path d="M372.359 267.195C373.304 267.195 374.173 267.838 374.211 269.198H370.508C370.621 267.951 371.415 267.195 372.359 267.195Z" fill="#DDE2CD"/>
<path d="M386.343 271.126C386.305 272.222 385.398 273.091 384.188 273.091C383.433 273.091 383.017 272.789 383.017 272.108C383.017 271.315 383.471 270.937 384.831 270.673C385.7 270.522 386.116 270.408 386.343 270.144V271.126Z" fill="#DDE2CD"/>
<path d="M399.268 271.126C399.268 272.222 398.323 273.091 397.113 273.091C396.358 273.091 395.942 272.789 395.942 272.108C395.942 271.315 396.396 270.937 397.756 270.673C398.625 270.522 399.041 270.408 399.306 270.144L399.268 271.126Z" fill="#DDE2CD"/>
<path d="M468.354 271.126C468.354 272.222 467.408 273.091 466.199 273.091C465.443 273.091 465.027 272.789 465.027 272.108C465.027 271.315 465.481 270.937 466.842 270.673C467.711 270.522 468.127 270.408 468.354 270.144V271.126Z" fill="#DDE2CD"/>
<path d="M193.372 264.513C195.829 264.513 196.773 265.608 196.773 268.367C196.773 271.088 195.828 272.486 193.599 272.486H191.482V264.513H193.372Z" fill="#DDE2CD"/>
<path d="M363.402 269.198C364.536 269.198 365.254 269.69 365.254 270.748C365.254 271.731 364.536 272.486 363.364 272.486H360.152V269.198H363.402Z" fill="#DDE2CD"/>
<path d="M363.213 264.513C364.384 264.513 364.914 264.89 364.914 265.835C364.914 266.704 364.347 267.158 363.364 267.158H360.152V264.513H363.213Z" fill="#DDE2CD"/>
<path d="M419.902 269.954H416.804L418.354 265.117H418.391L419.902 269.954Z" fill="#DDE2CD"/>
<path fill-rule="evenodd" clip-rule="evenodd" d="M494.544 258.919C497.945 258.919 500.741 261.716 500.741 265.117V275.699C500.741 279.138 497.945 281.934 494.544 281.935H40.3115C36.9103 281.935 34.1134 279.138 34.1133 275.699V265.117C34.1133 261.716 36.9102 258.919 40.3115 258.919H494.544ZM287.515 265.306C285.36 265.306 283.584 267.196 283.584 269.992C283.584 272.373 284.604 274.641 287.59 274.641C288.761 274.641 289.745 274.149 290.047 273.355V274.83C290.047 276.039 289.064 276.795 287.779 276.795C286.608 276.795 285.814 276.153 285.813 275.057H283.584C283.584 277.4 285.436 278.836 287.968 278.836C290.462 278.836 292.428 277.362 292.428 274.641V265.57H290.047V266.666C289.48 265.759 288.648 265.306 287.515 265.306ZM302.858 275.095C302.858 276.115 302.518 276.72 301.573 276.72C300.628 276.72 300.288 276.077 300.288 275.057H298.059C298.059 277.4 299.23 278.836 301.687 278.836C303.727 278.836 305.239 277.362 305.239 275.17V265.57H302.858V275.095ZM390.235 275.095C390.235 276.115 389.895 276.72 388.95 276.72C388.005 276.72 387.703 276.077 387.703 275.057H385.474C385.474 277.4 386.607 278.836 389.102 278.836C391.105 278.836 392.654 277.362 392.654 275.17V265.57H390.235V275.095ZM438.95 261.98C435.209 261.98 433.13 264.474 433.13 268.594C433.13 272.297 434.793 274.376 437.854 274.792V275.17C437.855 277.324 439.29 278.836 441.293 278.836C443.447 278.836 444.997 277.135 444.997 274.83H442.768C442.767 276.001 442.238 276.606 441.521 276.606C440.765 276.606 440.197 276.001 440.197 274.641C443.145 274.187 444.77 271.58 444.771 268.632C444.771 264.475 442.692 261.98 438.95 261.98ZM60.8711 261.98C56.9407 261.98 54.8994 264.89 54.8994 268.48C54.8994 271.844 57.0157 274.98 60.417 274.98C62.0799 274.98 63.478 274.376 64.0449 273.355L64.1211 274.565H66.1992V268.027H61.1348V270.067H63.8184C63.8184 271.579 62.5337 272.827 60.8711 272.827C58.4901 272.827 57.5068 270.559 57.5068 268.594C57.5069 265.684 58.8303 264.097 60.8711 264.097C62.2691 264.097 63.5163 265.004 63.6299 266.175H66.1992C66.0101 263.719 63.7808 261.981 60.8711 261.98ZM71.3018 265.306C68.5429 265.306 66.9551 267.12 66.9551 269.879C66.9551 273.167 68.429 274.792 71.4521 274.792C73.3795 274.792 74.854 273.772 75.4209 271.92H72.9639C72.7748 272.524 72.0946 272.902 71.3389 272.902C70.1676 272.902 69.4116 272.033 69.3359 270.673H75.5342C75.5342 267.12 74.0604 265.306 71.3018 265.306ZM85.8135 265.306C82.9416 265.306 81.8835 266.629 81.8457 268.48H84.0752C84.1886 267.687 84.6422 267.158 85.7002 267.158C86.6448 267.158 87.2117 267.498 87.2119 268.064C87.2119 268.707 86.9096 268.934 85.7002 269.123C83.3195 269.425 81.5813 269.728 81.5811 272.335C81.5811 273.809 82.5258 274.792 84.5664 274.792C85.7758 274.792 86.7212 274.376 87.2881 273.771C87.3259 274.036 87.3639 274.339 87.4395 274.565H89.6689V268.858C89.6689 266.591 88.6857 265.306 85.8135 265.306ZM102.858 265.306C99.9484 265.306 98.9284 266.629 98.8906 268.48H101.12C101.196 267.687 101.649 267.158 102.745 267.158C103.652 267.158 104.257 267.498 104.257 268.064C104.257 268.707 103.917 268.934 102.745 269.123C100.327 269.425 98.5881 269.728 98.5879 272.335C98.5879 273.809 99.5327 274.792 101.611 274.792C102.821 274.792 103.765 274.376 104.332 273.771C104.332 274.036 104.408 274.339 104.483 274.565H106.676V268.858C106.676 266.591 105.693 265.306 102.858 265.306ZM136.191 265.306C133.319 265.306 132.3 266.629 132.262 268.48H134.453C134.567 267.687 135.02 267.158 136.116 267.158C137.023 267.158 137.628 267.498 137.628 268.064C137.628 268.707 137.288 268.934 136.116 269.123C133.698 269.425 131.959 269.728 131.959 272.335C131.959 273.809 132.904 274.792 134.982 274.792C136.192 274.792 137.136 274.376 137.703 273.771C137.703 274.036 137.779 274.339 137.854 274.565H140.047V268.858C140.047 266.591 139.064 265.306 136.191 265.306ZM144.922 265.306C142.163 265.306 141.104 266.478 141.104 267.989C141.104 268.783 141.407 269.501 142.238 270.03C142.881 270.408 143.75 270.673 145.262 271.051C146.018 271.24 146.698 271.429 146.698 272.071C146.698 272.751 145.942 273.016 145.111 273.016C143.978 273.016 143.259 272.524 143.259 271.655H140.803C140.841 273.507 142.352 274.792 145.148 274.792C147.68 274.792 149.079 273.696 149.079 271.807C149.079 270.635 148.55 270.03 147.605 269.652C146.887 269.35 145.904 269.161 144.884 268.858C143.939 268.594 143.448 268.367 143.448 267.838C143.448 267.309 143.94 267.082 144.847 267.082C145.905 267.082 146.395 267.385 146.509 268.292H148.814C148.701 266.327 147.53 265.306 144.922 265.306ZM157.696 265.306C154.862 265.306 153.085 267.195 153.085 270.067C153.085 272.864 154.786 274.792 157.696 274.792C160.493 274.792 162.269 272.902 162.269 270.067C162.268 267.196 160.53 265.306 157.696 265.306ZM176.365 265.306C173.493 265.306 172.473 266.629 172.436 268.48H174.627C174.74 267.687 175.194 267.158 176.252 267.158C177.197 267.158 177.802 267.498 177.802 268.064C177.802 268.707 177.461 268.934 176.252 269.123C173.871 269.425 172.133 269.728 172.133 272.335C172.133 273.809 173.077 274.792 175.118 274.792C176.327 274.792 177.31 274.376 177.877 273.771C177.877 274.036 177.915 274.339 177.99 274.565H180.221V268.858C180.221 266.591 179.237 265.306 176.365 265.306ZM203.954 265.306C201.082 265.306 200.061 266.629 200.023 268.48H202.216C202.329 267.687 202.783 267.158 203.879 267.158C204.786 267.158 205.39 267.498 205.391 268.064C205.391 268.707 205.05 268.934 203.879 269.123C201.46 269.425 199.722 269.728 199.722 272.335C199.722 273.809 200.667 274.792 202.745 274.792C203.954 274.792 204.899 274.376 205.466 273.771C205.466 274.036 205.542 274.339 205.617 274.565H207.81V268.858C207.81 266.591 206.826 265.306 203.954 265.306ZM234.075 265.306C231.203 265.306 230.145 266.629 230.107 268.48H232.337C232.45 267.687 232.904 267.158 233.962 267.158C234.906 267.158 235.473 267.498 235.474 268.064C235.474 268.707 235.171 268.934 233.962 269.123C231.581 269.425 229.843 269.728 229.843 272.335C229.843 273.809 230.787 274.792 232.828 274.792C234.037 274.792 234.982 274.376 235.549 273.771C235.587 274.036 235.625 274.339 235.7 274.565H237.93V268.858C237.93 266.591 236.947 265.306 234.075 265.306ZM269.487 265.306C266.728 265.306 265.141 267.12 265.141 269.879C265.141 273.167 266.653 274.792 269.639 274.792C271.566 274.792 273.04 273.771 273.606 271.92H271.15C270.999 272.525 270.318 272.902 269.524 272.902C268.353 272.902 267.597 272.033 267.521 270.673H273.72C273.72 267.12 272.284 265.306 269.487 265.306ZM297.491 265.306C294.619 265.306 293.561 266.629 293.523 268.48H295.753C295.866 267.687 296.32 267.158 297.378 267.158C298.323 267.158 298.927 267.498 298.928 268.064C298.928 268.707 298.587 268.934 297.378 269.123C294.997 269.425 293.259 269.728 293.259 272.335C293.259 273.809 294.204 274.792 296.244 274.792C297.454 274.792 298.399 274.376 298.966 273.771C299.004 274.036 299.041 274.339 299.116 274.565H301.347V268.858C301.347 266.591 300.363 265.306 297.491 265.306ZM310.454 265.306C307.544 265.306 306.524 266.629 306.486 268.48H308.679C308.792 267.687 309.245 267.158 310.341 267.158C311.248 267.158 311.852 267.498 311.853 268.064C311.853 268.707 311.512 268.934 310.341 269.123C307.922 269.425 306.184 269.728 306.184 272.335C306.184 273.809 307.129 274.792 309.207 274.792C310.416 274.792 311.362 274.376 311.929 273.771C311.929 274.036 312.004 274.339 312.08 274.565H314.271V268.858C314.271 266.591 313.289 265.306 310.454 265.306ZM331.808 266.742C331.127 265.76 330.258 265.306 329.162 265.306C326.819 265.306 325.458 267.233 325.458 269.954C325.458 273.015 327.083 274.792 329.351 274.792C330.447 274.792 331.279 274.376 331.846 273.469L331.883 274.565H334.15V262.245H331.808V266.742ZM339.215 265.306C336.343 265.306 335.285 266.629 335.247 268.48H337.477C337.59 267.687 338.043 267.158 339.102 267.158C340.046 267.158 340.651 267.498 340.651 268.064C340.651 268.707 340.311 268.934 339.102 269.123C336.721 269.425 334.983 269.728 334.982 272.335C334.982 273.809 335.927 274.792 337.968 274.792C339.177 274.792 340.122 274.376 340.688 273.771C340.726 274.036 340.764 274.339 340.84 274.565H343.069V268.858C343.069 266.591 342.087 265.306 339.215 265.306ZM372.435 265.306C369.676 265.306 368.051 267.12 368.051 269.879C368.051 273.167 369.563 274.792 372.586 274.792C374.513 274.792 375.987 273.772 376.517 271.92H374.06C373.908 272.524 373.228 272.902 372.473 272.902C371.301 272.902 370.507 272.033 370.432 270.673H376.668C376.668 267.12 375.193 265.306 372.435 265.306ZM384.869 265.306C381.997 265.306 380.976 266.629 380.938 268.48H383.13C383.243 267.687 383.697 267.158 384.793 267.158C385.7 267.158 386.304 267.498 386.305 268.064C386.305 268.707 385.965 268.934 384.793 269.123C382.374 269.425 380.636 269.728 380.636 272.335C380.636 273.809 381.581 274.792 383.659 274.792C384.868 274.792 385.813 274.376 386.38 273.771C386.38 274.036 386.456 274.339 386.531 274.565H388.724V268.858C388.724 266.591 387.741 265.306 384.869 265.306ZM397.832 265.306C394.922 265.306 393.901 266.629 393.863 268.48H396.093C396.206 267.687 396.622 267.158 397.718 267.158C398.662 267.158 399.229 267.498 399.229 268.064C399.229 268.707 398.889 268.934 397.718 269.123C395.299 269.425 393.561 269.728 393.561 272.335C393.561 273.809 394.543 274.792 396.584 274.792C397.793 274.792 398.739 274.376 399.306 273.771C399.343 274.036 399.381 274.339 399.457 274.565H401.687V268.858C401.687 266.591 400.666 265.306 397.832 265.306ZM445.602 271.504C445.602 273.469 446.887 274.792 448.663 274.792C449.91 274.792 450.855 274.339 451.46 273.318V274.565H453.728V265.57H451.384V270.748C451.384 271.957 450.742 272.827 449.532 272.827C448.512 272.827 447.982 272.26 447.982 271.126V265.57H445.602V271.504ZM466.917 265.306C464.007 265.306 462.986 266.629 462.948 268.48H465.179C465.292 267.687 465.708 267.158 466.804 267.158C467.748 267.158 468.315 267.498 468.315 268.064C468.315 268.707 467.975 268.934 466.804 269.123C464.385 269.425 462.647 269.728 462.646 272.335C462.646 273.809 463.591 274.792 465.67 274.792C466.879 274.792 467.824 274.376 468.391 273.771C468.391 274.036 468.466 274.339 468.542 274.565H470.771V268.858C470.771 266.591 469.751 265.306 466.917 265.306ZM81.2783 265.306C80.2959 265.306 79.3892 265.42 78.5957 266.629V265.57H76.3652V274.565H78.7471V269.879C78.7471 268.443 79.4646 267.687 80.9385 267.687C81.1274 267.687 81.3543 267.725 81.5811 267.763V265.306H81.2783ZM90.7266 274.565H93.1074V271.693L94.2793 270.521L96.2451 274.565H98.9277L95.9805 268.858L99.0039 265.57H96.0938L93.1074 268.972V262.245H90.7266V274.565ZM112.911 265.306C111.475 265.306 110.568 265.873 110.001 266.855V265.57H107.733V274.565H110.114V269.388C110.114 268.027 110.72 267.347 111.967 267.347C113.1 267.347 113.516 267.725 113.516 269.123V274.565H115.897V268.329C115.897 266.364 114.65 265.306 112.911 265.306ZM121.302 274.565H123.683V266.402L128.897 274.565H131.241V262.396H128.86V270.219L124.022 262.396H121.302V274.565ZM149.797 274.565H152.178V265.57H149.797V274.565ZM168.315 265.306C166.879 265.306 165.972 265.873 165.405 266.855V265.57H163.138V274.565H165.519V269.388C165.519 268.027 166.124 267.347 167.371 267.347C168.505 267.347 168.92 267.725 168.92 269.123V274.565H171.302V268.329C171.302 266.364 170.054 265.306 168.315 265.306ZM181.278 274.565H183.659V262.245H181.278V274.565ZM189.026 274.565H194.128C197.265 274.565 199.382 272.071 199.382 268.367C199.382 264.664 197.038 262.396 193.713 262.396H189.026V274.565ZM208.867 274.565H211.248V271.693L212.42 270.521L214.385 274.565H217.068L214.12 268.858L217.144 265.57H214.234L211.248 268.972V262.245H208.867V274.565ZM219.865 274.565H222.284L223.72 269.312L225.156 274.565H227.575L230.183 265.57H227.726L226.365 271.353L224.93 265.57H222.511L221.264 271.353L219.789 265.57H217.295L219.865 274.565ZM238.988 274.565H241.369V269.388C241.369 268.178 242.012 267.196 243.221 267.195C244.279 267.195 244.732 267.611 244.732 268.972V274.565H247.151V268.178C247.151 266.402 245.866 265.306 244.015 265.306C242.805 265.306 241.709 265.911 241.369 266.742V262.245H238.988V274.565ZM252.556 274.565H254.899V266.251L257.167 274.565H259.699L261.967 266.213V274.565H264.348V262.396H260.682L258.489 271.315L256.298 262.396H252.556V274.565ZM279.729 265.306C278.293 265.306 277.386 265.873 276.819 266.855V265.57H274.552V274.565H276.933V269.388C276.933 268.027 277.537 267.347 278.784 267.347C279.918 267.347 280.334 267.725 280.334 269.123V274.565H282.715V268.329C282.715 266.364 281.467 265.306 279.729 265.306ZM320.243 265.306C319.261 265.306 318.353 265.42 317.56 266.629V265.57H315.33V274.565H317.711V269.879C317.711 268.443 318.429 267.687 319.902 267.687C320.129 267.687 320.318 267.725 320.545 267.763V265.306H320.243ZM349.306 265.306C347.87 265.306 346.925 265.873 346.396 266.855V265.57H344.128V274.565H346.509V269.388C346.509 268.027 347.113 267.347 348.36 267.347C349.494 267.347 349.872 267.725 349.872 269.123V274.565H352.291V268.329C352.291 266.364 351.006 265.306 349.306 265.306ZM357.695 274.565H363.176C366.237 274.565 367.711 273.167 367.711 270.938C367.711 269.199 366.879 268.367 365.858 267.989C366.728 267.649 367.333 266.78 367.333 265.722C367.333 263.681 366.086 262.396 363.705 262.396H357.695V274.565ZM377.499 274.565H379.88V262.245H377.499V274.565ZM407.62 265.306C406.638 265.306 405.73 265.42 404.937 266.629V265.57H402.707V274.565H405.088V269.879C405.088 268.443 405.806 267.687 407.28 267.687C407.507 267.687 407.733 267.725 407.922 267.763V265.306H407.62ZM412.608 274.565H415.292L416.161 272.071H420.621L421.414 274.565H424.173L419.902 262.396H416.955L412.608 274.565ZM424.815 274.565H427.196V262.245H424.815V274.565ZM459.698 265.306C458.716 265.306 457.809 265.42 457.016 266.629V265.57H454.785V274.565H457.166V269.879C457.166 268.443 457.884 267.687 459.32 267.687C459.547 267.687 459.774 267.725 460.001 267.763V265.306H459.698ZM476.97 265.306C475.534 265.306 474.626 265.873 474.06 266.855V265.57H471.792V274.565H474.173V269.388C474.173 268.027 474.778 267.347 476.025 267.347C477.159 267.347 477.574 267.725 477.574 269.123V274.565H479.955V268.329C479.955 266.364 478.708 265.306 476.97 265.306ZM427.952 269.841H432.487V267.989H427.952V269.841ZM460.605 266.969H462.23V262.396H460.605V266.969ZM149.797 264.475H152.178V262.245H149.797V264.475ZM302.858 264.475H305.239V262.245H302.858V264.475ZM390.235 264.475H392.654V262.245H390.235V264.475Z" fill="#DDE2CD"/>
<path fill-rule="evenodd" clip-rule="evenodd" d="M162.583 179.438C164.707 179.438 167.147 179.697 169.902 180.214C172.686 180.702 175.37 181.721 177.953 183.271C180.565 184.82 182.731 187.16 184.453 190.288C186.175 193.416 187.037 197.606 187.037 202.858V246.427H176.877V237.472H176.36C175.672 238.907 174.523 240.442 172.916 242.078C171.309 243.714 169.17 245.107 166.501 246.255C163.832 247.403 160.574 247.977 156.729 247.977C152.538 247.977 148.736 247.187 145.32 245.608C141.905 244.001 139.193 241.691 137.184 238.678C135.175 235.635 134.17 231.961 134.17 227.656C134.17 223.868 134.916 220.797 136.408 218.443C137.901 216.061 139.896 214.196 142.393 212.847C144.89 211.498 147.645 210.493 150.658 209.833C153.7 209.144 156.757 208.599 159.828 208.197C163.846 207.681 167.104 207.293 169.601 207.035C172.126 206.748 173.963 206.274 175.111 205.614C176.288 204.954 176.877 203.806 176.877 202.17V201.825C176.877 197.578 175.714 194.277 173.39 191.924C171.094 189.57 167.606 188.394 162.928 188.394C158.078 188.394 154.275 189.455 151.52 191.579C148.764 193.703 146.826 195.971 145.707 198.382L136.063 194.938C137.786 190.919 140.082 187.79 142.952 185.552C145.851 183.284 149.009 181.706 152.424 180.816C155.868 179.898 159.254 179.439 162.583 179.438ZM176.877 213.191C176.446 213.708 175.499 214.181 174.035 214.611C172.6 215.013 170.935 215.373 169.041 215.688C167.176 215.975 165.353 216.233 163.573 216.463C161.823 216.664 160.402 216.836 159.312 216.979C156.671 217.324 154.203 217.883 151.907 218.658C149.64 219.404 147.803 220.539 146.396 222.06C145.019 223.552 144.33 225.59 144.33 228.173C144.33 231.703 145.635 234.373 148.247 236.181C150.888 237.96 154.231 238.85 158.278 238.85C162.296 238.85 165.683 238.06 168.438 236.481C171.222 234.903 173.317 232.865 174.724 230.368C176.159 227.871 176.877 225.245 176.877 222.49V213.191Z" fill="#DDE2CD"/>
<path d="M38.5742 157.052C43.2236 157.052 47.5572 157.756 51.5752 159.162C55.622 160.54 59.2247 162.505 62.3818 165.06C65.5675 167.585 68.2219 170.613 70.3457 174.144C72.4696 177.645 73.9337 181.534 74.7373 185.811H63.7158C62.7687 182.912 61.5204 180.315 59.9707 178.019C58.4496 175.694 56.6268 173.713 54.5029 172.077C52.4078 170.441 50.0256 169.193 47.3564 168.332C44.6873 167.471 41.7599 167.04 38.5742 167.04C33.3507 167.04 28.6006 168.389 24.3242 171.087C20.0479 173.785 16.6468 177.76 14.1211 183.012C11.5955 188.264 10.3321 194.708 10.332 202.342C10.332 209.976 11.6098 216.42 14.1641 221.672C16.7184 226.924 20.1766 230.9 24.5391 233.598C28.9016 236.296 33.8096 237.645 39.2627 237.645C44.314 237.645 48.7625 236.568 52.6084 234.415C56.483 232.234 59.4968 229.163 61.6494 225.202C63.7373 221.383 64.8228 216.921 64.9121 211.813H41.6738V202.342H75.2539V211.813C75.2539 219.075 73.7041 225.389 70.6045 230.756C67.5335 236.123 63.2857 240.285 57.8613 243.241C52.4656 246.169 46.2657 247.632 39.2627 247.632C31.4563 247.632 24.5968 245.796 18.6846 242.122C12.801 238.448 8.2088 233.224 4.9082 226.451C1.6363 219.678 0 211.641 0 202.342C3.2652e-05 195.368 0.932325 189.096 2.79785 183.528C4.69211 177.932 7.36159 173.167 10.8057 169.235C14.2497 165.303 18.3255 162.29 23.0322 160.195C27.7392 158.1 32.9201 157.052 38.5742 157.052Z" fill="#DDE2CD"/>
<path d="M119.888 179.267C120.634 179.267 121.566 179.281 122.686 179.31C123.805 179.338 124.652 179.381 125.226 179.438V189.771C124.881 189.685 124.092 189.556 122.857 189.384C121.652 189.183 120.375 189.082 119.026 189.082C115.812 189.082 112.942 189.757 110.416 191.105C107.919 192.426 105.938 194.263 104.475 196.616C103.04 198.941 102.322 201.596 102.322 204.581V246.427H92.1621V180.3H101.978V190.288H102.667C103.872 187.016 106.054 184.361 109.211 182.323C112.368 180.286 115.927 179.267 119.888 179.267Z" fill="#DDE2CD"/>
<path d="M235.545 179.438C240.022 179.438 243.94 180.358 247.298 182.194C250.656 184.002 253.267 186.758 255.133 190.46C256.998 194.134 257.932 198.783 257.932 204.408V246.427H247.771V205.098C247.771 199.903 246.422 195.856 243.725 192.957C241.027 190.03 237.324 188.565 232.617 188.565C229.374 188.565 226.475 189.269 223.921 190.675C221.395 192.081 219.4 194.134 217.937 196.832C216.473 199.53 215.741 202.802 215.741 206.647V246.427H205.581V180.3H215.396V190.632H216.258C217.808 187.274 220.161 184.576 223.318 182.538C226.475 180.472 230.551 179.438 235.545 179.438Z" fill="#DDE2CD"/>
<path fill-rule="evenodd" clip-rule="evenodd" d="M416.689 34.3535C420.355 39.4178 422.208 46.4476 417.483 52.9102L420.507 54.2705C420.507 85.6007 420.091 117.082 420.016 148.563L420.204 149.962C426.742 148.337 434.339 148.11 444.203 151.398C456.485 155.518 465.782 163.983 471.413 174.225L471.489 174.073C474.021 169.123 476.024 164.172 478.519 159.259C479.841 156.764 480.862 153.741 482.449 151.927C488.987 144.709 499.456 146.371 503.387 155.215C506.523 162.244 515.895 180.195 517.634 185.185C516.311 184.429 516.122 183.749 514.384 182.615C510.567 180.083 505.389 179.402 501.005 180.801C498.964 181.443 497.339 182.312 495.979 183.408C489.856 182.388 480.862 181.746 477.498 183.068C473.227 184.769 465.065 191.988 456.032 200.869C457.657 187.302 450.174 172.524 432.827 170.219C423.455 168.972 415.215 172.297 409.584 178.155C409.66 136.356 409.698 81.5189 409.244 79.9316C408.224 76.4171 407.317 80.0073 408.904 75.1699C409.622 72.9779 409.509 71.1259 408.602 69.3496C407.619 67.4222 402.896 63.2656 401.006 62.0938C396.962 65.0037 391.558 69.2739 393.296 74.9805C394.732 79.7424 394.316 75.1321 393.106 79.7051C392.237 83.0352 392.578 222.298 392.691 227.173C402.291 227.173 409.471 223.809 409.471 220.294V216.478C413.741 220.862 419.486 223.733 425.798 224.338C428.481 224.64 430.975 224.603 433.318 224.301C426.138 231.973 420.204 238.473 417.521 241.308C427.913 235.488 439.819 228.004 451.043 224.149C458.866 221.504 466.841 219.766 473.644 220.521C474.664 220.635 475.533 220.786 476.289 220.975L475.986 221.579C473.568 226.719 471.338 231.368 468.844 236.583C466.312 241.874 463.364 246.107 455.994 245.767C452.479 245.615 449.456 244.066 447.377 241.686C430.333 250.566 418.315 241.081 418.088 241.156C405.881 246.296 407.921 246.674 376.251 245.767L376.289 166.364C373.228 168.103 351.61 195.654 351.61 200.756C351.61 215.835 351.761 230.687 351.799 245.729L341.973 245.767L341.983 226.305C338.719 232.704 334.026 237.648 327.9 241.132C326.055 242.173 324.09 243.059 322.01 243.793C322.012 244.438 322.017 245.083 322.019 245.729C319.324 245.711 317.121 245.693 314.643 245.672C311.648 246.174 308.461 246.427 305.083 246.427H277.875V158.258H306.289C309.778 158.258 313.062 158.552 316.141 159.14C320.508 154.387 325.867 150.461 331.958 147.505C348.284 139.606 367.143 142.327 380.976 152.796C381.013 150.717 381.013 148.676 381.013 146.636C381.013 115.797 381.24 85.147 381.277 54.3838L384.074 52.7207C377.12 37.9438 385.889 33.144 394.959 25.7744C396.168 24.7919 396.849 23.9983 397.831 23.2803H403.765L416.689 34.3535ZM288.552 236.955H303.874C303.805 219.684 303.4 207.295 303.727 190.627C303.889 182.178 306.042 174.53 309.764 167.911C308.425 167.79 307.038 167.729 305.601 167.729H288.552V236.955ZM335.07 188.717C329.192 196.07 321.867 206.354 321.867 209.032C321.867 217.076 321.915 225.055 321.959 233.054C322.147 232.95 322.335 232.845 322.52 232.736C327.312 229.924 330.886 225.92 333.239 220.726C335.593 215.531 336.77 209.345 336.77 202.17C336.77 197.203 336.202 192.719 335.07 188.717Z" fill="#DDE2CD"/>
<path d="M519.448 191.458C520.204 191.836 520.847 192.214 521.263 192.63C523.114 194.784 523.228 195.351 525.004 199.093C528.254 205.933 531.316 212.093 534.604 218.934C537.74 225.396 543.295 233.181 538.231 240.702C533.848 247.202 523.379 247.808 518.314 241.156C517.294 239.758 516.387 237.982 515.518 236.017L519.448 191.458Z" fill="#DDE2CD"/>
<path fill-rule="evenodd" clip-rule="evenodd" d="M476.894 185.865C481.164 184.202 496.13 186.319 497.302 187.528C498.133 188.473 497.264 190.212 496.319 192.177L480.824 221.957C479.464 220.408 480.521 217.838 473.719 217.082C468.012 216.44 461.398 217.876 454.86 220.105C445.526 223.28 435.586 229.553 426.932 234.391C433.962 227.02 467.294 189.683 476.894 185.865ZM480.182 209.372C469.071 201.171 449.456 210.997 456.977 212.131C459.962 212.584 463.553 208.049 473.492 210.619C483.432 213.189 482.676 212.169 480.182 209.372ZM483.394 205.14C474.172 196.712 457.884 201.965 464.119 204.006C466.613 204.837 469.6 201.587 477.839 205.215C486.115 208.805 485.472 207.861 483.394 205.14ZM485.775 199.849C477.952 192.706 464.12 197.165 469.41 198.903C471.527 199.584 474.059 196.863 481.051 199.924C488.08 202.985 487.551 202.191 485.775 199.849ZM487.589 194.973C480.9 188.851 469.109 192.668 473.605 194.142C475.42 194.746 477.574 192.403 483.545 195.011C489.554 197.618 489.101 196.938 487.589 194.973ZM489.139 191.156C484.15 186.319 475.306 188.624 478.67 189.946C480.03 190.475 481.656 188.813 486.115 191.043C490.612 193.235 490.272 192.706 489.139 191.156Z" fill="#DDE2CD"/>
<path fill-rule="evenodd" clip-rule="evenodd" d="M504.635 188.7C506.865 188.322 513.1 189.192 517.182 190.854L513.44 233.371C511.664 229.327 509.661 225.094 506.373 222.638C503.35 220.37 499.57 218.934 494.695 219.576C488.838 220.332 487.363 222.94 484.982 224.527L499.306 194.369C501.082 190.779 501.271 189.116 504.635 188.7ZM511.777 216.175C517.9 215.192 501.951 207.37 492.881 214.097C490.84 216.402 490.236 217.233 498.323 215.079C506.449 212.887 509.359 216.553 511.777 216.175ZM512.307 209.901C517.559 209.032 503.841 202.306 496.018 208.088C494.279 210.091 493.751 210.809 500.704 208.957C507.696 207.067 510.228 210.242 512.307 209.901ZM513.101 204.309C517.823 203.552 505.466 197.468 498.437 202.721C496.849 204.497 496.358 205.139 502.632 203.477C508.943 201.776 511.211 204.611 513.101 204.309ZM513.214 199.018C517.37 198.337 506.524 193.009 500.364 197.619C499.004 199.169 498.588 199.736 504.067 198.262C509.585 196.788 511.551 199.282 513.214 199.018ZM513.629 194.709C516.992 194.142 508.149 189.796 503.16 193.537C502.026 194.822 501.687 195.276 506.146 194.066C510.643 192.895 512.268 194.898 513.629 194.709Z" fill="#DDE2CD"/>
<path d="M348.662 121.882C348.927 122.222 349.154 122.676 349.305 122.94C354.747 131.897 351.535 127.173 358.64 132.729C362.079 135.374 362.796 137.982 362.872 141.799C353.651 139.607 343.824 140.174 334.641 143.915C334.565 138.397 335.095 135.449 339.479 132.161C341.708 130.498 343.673 129.78 344.883 128.495L348.096 123.016C348.209 122.411 348.398 122.26 348.662 121.882Z" fill="#DDE2CD"/>
<path d="M397.793 1.96484C397.642 3.09863 397.377 6.34932 400.287 6.31152C404.33 6.27351 402.29 0.756842 402.781 0.0380859C404.255 1.58741 405.011 2.45652 403.915 4.98828C402.63 7.82274 402.819 5.48001 400.892 7.93652C401.307 12.4338 401.119 9.07033 403.084 12.4717C403.008 12.6229 402.819 12.8121 402.743 12.8877L401.799 14.0967C399.305 18.2539 408.034 16.8934 403.159 22.0332L403.197 22.0713H397.226L397.415 21.958C393.333 18.0654 398.321 17.8004 399.115 15.873C399.909 13.9456 398.813 14.6636 397.49 12.4717C399.304 9.14591 399.078 12.3583 399.645 7.93652C399.229 7.40742 393.22 4.72411 397.793 0V1.96484Z" fill="#DDE2CD"/>
</svg>
