<?xml version="1.0" encoding="UTF-8"?>
<!DOCTYPE svg PUBLIC "-//W3C//DTD SVG 1.1//EN" "http://www.w3.org/Graphics/SVG/1.1/DTD/svg11.dtd">
<!-- Creator: CorelDRAW X7 -->
<svg xmlns="http://www.w3.org/2000/svg" xml:space="preserve" width="49.2892mm" height="49.0831mm" version="1.1" style="shape-rendering:geometricPrecision; text-rendering:geometricPrecision; image-rendering:optimizeQuality; fill-rule:evenodd; clip-rule:evenodd"
viewBox="0 0 305 304"
 xmlns:xlink="http://www.w3.org/1999/xlink">
 <defs>
  <style type="text/css">
   <![CDATA[
    .fil2 {fill:#078F5B}
    .fil0 {fill:#ACCE22}
    .fil1 {fill:#078F5B}
   ]]>
  </style>
 </defs>
 <g id="Layer_x0020_1">
  <metadata id="CorelCorpID_0Corel-Layer"/>
  <g id="_371738664">
   <path class="fil0" d="M215 182c-5,4 -9,8 -13,12l21 21c7,6 16,18 23,23 8,-8 16,-15 24,-23 18,-19 36,-35 35,-64 0,-30 -18,-43 -37,-62l-49 -50c-8,-8 -17,-18 -26,-24 -23,-18 -50,-20 -75,-5 -10,7 -42,39 -51,49 20,18 20,21 44,44 38,-37 44,-45 84,0 34,37 0,0 34,37 10,13 -1,29 -14,42z"/>
   <path class="fil1" d="M91 122c4,-4 8,-8 12,-12l-21 -21c-7,-6 -16,-18 -23,-23 -8,8 -16,15 -23,23 -19,19 -37,35 -36,64 1,30 18,43 37,62l50 50c7,8 16,18 25,24 23,18 51,20 75,5 10,-7 42,-39 51,-49 -19,-18 -20,-21 -44,-44 -38,37 -43,45 -83,0 -35,-37 0,0 -35,-37 -9,-13 1,-29 15,-42z"/>
  </g>
  <path class="fil2" d="M176 197l3 0 4 -2c8,-5 2,-20 -9,-15l-12 -17c1,-2 2,-2 3,-3 1,-2 1,-3 2,-4l9 1c0,2 1,7 7,8 10,1 12,-12 4,-15 -5,-2 -8,1 -10,4l-9 -2c-1,0 0,-5 -4,-9 0,-1 10,-14 11,-17 4,1 6,2 9,0 5,-2 8,-9 4,-15 -2,-3 -3,-2 -6,-4l-4 0c-2,1 -3,1 -5,2 -3,3 -4,7 -3,11 1,2 2,2 3,4l-12 17c-6,-3 -13,-2 -16,2 -2,0 -7,-4 -9,-6 -2,-2 -5,-3 -7,-6 3,-10 -8,-15 -14,-8 -3,3 -2,8 1,10 3,4 6,3 10,1 3,2 14,11 16,12 -1,4 -2,5 -1,9 1,4 3,5 4,7 -1,3 -7,10 -9,14 -16,-6 -20,11 -13,17 10,9 24,-5 16,-15l9 -14c2,1 3,1 6,1 2,0 3,0 5,0 3,3 10,15 12,16 -1,3 -4,5 -2,10 2,5 5,5 7,6z"/>
 </g>
</svg>
