<svg width="1264" height="305" viewBox="0 0 1264 305" fill="none" xmlns="http://www.w3.org/2000/svg">
<path fill-rule="evenodd" clip-rule="evenodd" d="M140.636 303.186C152.88 306.868 170.903 304.941 183.147 296.979C188.455 294.196 193.421 289.016 197.274 287.646L207.677 297.878C224.844 317.485 257.68 275.659 252.971 264.229C249.375 255.495 200.057 212.043 194.32 203.181C181.734 209.26 174.071 233.148 147.914 229.424C136.826 227.797 130.233 220.819 125.053 215.682C119.573 210.245 112.424 203.823 107.8 198.215C100.052 190.638 92.8596 183.959 85.753 176.253C82.9703 173.299 78.8605 168.162 77.1053 162.725C72.3105 148.127 77.9615 136.782 88.022 126.422C92.0462 122.312 99.7948 116.147 102.235 110.839C80.3161 89.7761 70.5125 79.0307 58.5684 68.585C54.2873 70.8111 46.4102 79.8441 42.2148 83.9111C7.32427 117.689 -21.4872 157.288 21.7942 200.27C52.0612 230.28 105.103 294.324 140.636 303.186Z" fill="#078F5B"/>
<path fill-rule="evenodd" clip-rule="evenodd" d="M214.527 181.904C210.245 186.142 205.964 190.124 202.112 194.319L222.703 215.039C230.024 221.161 238.843 233.191 246.335 237.857C254.169 230.28 261.704 222.702 269.581 214.825C288.203 196.288 305.713 180.149 305.113 151.295C304.471 121.156 287.09 107.842 267.826 88.4488L218.594 38.9599C210.802 31.04 201.812 21.0224 193.079 14.5152C170.089 -2.65182 142.519 -5.22045 118.289 10.1913C108.185 16.6557 76.3772 49.0204 67.4727 58.8668C86.6517 76.9756 87.3367 80.1864 110.925 103.176C148.77 66.4014 154.635 58.2674 194.577 103.304C228.74 139.993 194.577 103.304 228.74 139.993C238.458 152.75 227.841 168.761 214.527 181.904Z" fill="#ACCE22"/>
<path fill-rule="evenodd" clip-rule="evenodd" d="M114.393 190.766C121.457 189.824 127.451 187.555 133.829 185.628C144.318 182.375 145.688 185.372 152.067 189.439C152.238 181.99 151.981 176.938 151.21 173.599H155.363C154.464 177.238 154.635 182.546 155.021 189.396C168.977 178.864 175.441 188.368 192.651 190.723C191.11 186.185 188.67 180.791 186.657 176.253C185.544 173.856 185.031 172.956 184.003 172.486L183.918 120.728C182.762 114.606 179.251 113.15 176.04 110.453L175.57 170.73C174.671 170.473 173.643 170.217 172.53 169.831C171.974 169.66 171.46 169.532 170.946 169.36C170.946 157.459 170.946 145.558 170.946 133.657C170.946 121.07 174.2 104.374 162.641 100.393L162.512 167.948C160.5 167.99 158.959 168.461 157.803 169.36L157.846 89.733C157.846 85.88 155.534 83.9536 153.565 82.7549C151.639 83.6539 149.412 86.7791 149.412 89.4761V169.574C148.128 168.033 146.287 167.648 143.89 167.862L143.847 103.518L143.505 100.65C138.324 104.46 135.413 105.616 135.413 114.906V169.746C133.958 170.131 132.374 170.559 130.661 170.944L130.747 111.01C119.659 114.948 122.313 126.935 122.313 138.537C122.313 150.01 122.313 161.483 122.313 172.956C121.928 173.385 121.5 174.198 120.772 175.611C118.674 179.549 115.678 186.613 114.393 190.766ZM120.858 185.029C120.858 185.029 139.224 180.106 142.948 180.32C146.673 180.577 148.342 181.733 149.541 183.017C150.74 184.344 149.584 185.2 148.299 183.916C147.015 182.632 145.046 181.09 140.636 181.647C136.27 182.204 121.5 186.185 121.115 186.099C120.729 185.971 120.258 185.372 120.858 185.029ZM122.57 180.662C122.57 180.662 138.324 176.124 142.135 176.381C145.902 176.595 147.828 177.751 149.327 179.078C150.782 180.363 149.798 181.219 148.257 179.977C146.715 178.693 144.361 177.152 140.123 177.708C135.841 178.222 123.469 181.818 123.041 181.733C122.656 181.604 122.057 181.005 122.57 180.662ZM124.154 176.638C124.154 176.638 138.324 172.528 142.135 172.742C145.902 172.999 147.828 174.155 149.327 175.482C150.782 176.767 149.798 177.623 148.257 176.339C146.715 175.097 144.361 173.556 140.123 174.07C135.841 174.626 125.053 177.794 124.668 177.666C124.24 177.58 123.641 176.938 124.154 176.638ZM186.443 185.029C186.443 185.029 168.078 180.106 164.353 180.32C160.629 180.577 158.959 181.733 157.76 183.017C156.562 184.344 157.718 185.2 159.002 183.916C160.286 182.632 162.256 181.09 166.622 181.647C171.032 182.204 185.801 186.185 186.187 186.099C186.572 185.971 187.043 185.372 186.443 185.029ZM184.731 180.662C184.731 180.662 168.934 176.124 165.167 176.381C161.399 176.595 159.473 177.751 157.974 179.078C156.476 180.363 157.461 181.219 159.045 179.977C160.586 178.693 162.941 177.152 167.179 177.708C171.46 178.222 183.832 181.818 184.217 181.733C184.645 181.604 185.245 181.005 184.731 180.662ZM183.104 176.638C183.104 176.638 168.934 172.528 165.167 172.742C161.399 172.999 159.473 174.155 157.974 175.482C156.476 176.767 157.461 177.623 159.045 176.339C160.586 175.097 162.941 173.556 167.179 174.07C171.46 174.626 182.248 177.794 182.633 177.666C183.019 177.58 183.661 176.938 183.104 176.638ZM155.063 196.588C164.61 197.102 158.146 189.01 173.6 194.062C179.123 195.903 186.015 198.9 193.25 199.328C193.593 196.802 194.449 194.661 192.266 193.891C187.728 192.264 176.597 189.738 172.487 188.411C163.326 185.414 157.332 188.668 155.063 196.588ZM113.751 198.686C127.536 198.386 136.997 190.338 143.462 192.863C147.871 194.233 145.345 196.759 151.981 196.417C147.7 181.39 132.417 189.695 122.527 192.093C115.507 193.805 113.238 191.408 113.751 198.686Z" fill="#078F5B"/>
<path d="M418.172 153.788C418.172 164.367 413.289 169.656 407.186 169.656C400.405 169.656 395.522 164.367 395.522 152.161C421.562 148.227 435.667 125.307 435.667 99.4031C435.667 62.6491 417.493 40.8137 384.537 40.8137C351.58 40.8137 333 62.6491 333 98.9962C333 131.546 347.919 149.855 374.636 153.517V156.907C374.636 175.895 387.385 189.186 405.152 189.186C424.139 189.186 437.837 174.267 437.837 153.788H418.172ZM384.537 136.021C365.956 136.021 355.107 124.765 355.107 99.4031C355.107 74.0415 365.685 60.6148 384.537 60.6148C403.253 60.6148 413.56 74.0415 413.56 99.4031C413.56 124.765 400.676 136.021 384.537 136.021ZM514.6 151.618V72.1428H493.849V117.983C493.849 128.426 488.153 136.021 477.575 136.021C468.623 136.021 464.148 131.275 464.148 121.238V72.1428H443.126V124.493C443.126 141.853 454.247 153.652 470.115 153.652C481.101 153.652 489.374 149.448 494.799 140.361V151.618H514.6ZM544.844 151.618V110.253C544.844 97.5043 551.082 90.9944 564.102 90.9944C566.001 90.9944 567.9 91.13 569.934 91.5369V69.9728H567.086C558.542 69.9728 550.54 71.0578 543.623 81.6364V72.1428H523.822V151.618H544.844ZM575.359 86.9257C592.176 83.3995 597.601 74.7196 597.601 56.4104V40H575.359V61.8354H587.836C587.701 72.0071 583.632 76.7539 575.359 78.9239V86.9257ZM651.308 121.374C651.037 130.732 643.035 138.598 632.185 138.598C625.54 138.598 622.013 135.75 622.013 129.783C622.013 123.002 625.947 119.611 637.881 117.305C645.612 115.949 649.274 114.729 651.444 112.694L651.308 121.374ZM672.33 151.618V101.302C672.33 81.3651 663.65 69.9728 638.424 69.9728C612.927 69.9728 603.976 81.5008 603.569 97.9112H623.098C624.183 90.8588 627.981 86.112 637.475 86.112C645.748 86.112 650.901 89.2313 650.901 94.385C650.901 99.9456 648.053 101.98 637.475 103.472C616.317 106.32 600.992 108.897 600.992 131.817C600.992 144.837 609.401 153.652 627.574 153.652C638.153 153.652 646.561 149.991 651.579 144.43C651.715 146.871 652.258 149.584 652.8 151.618H672.33ZM753.568 151.618V96.555C753.568 79.1952 742.447 69.9728 727.257 69.9728C714.509 69.9728 706.507 74.8552 701.624 83.8064V72.1428H681.552V151.618H702.574V106.049C702.574 93.9781 707.863 87.7394 718.849 87.7394C728.885 87.7394 732.411 91.13 732.411 103.472V151.618H753.568ZM873.188 114.729C870.204 128.155 862.067 135.75 848.911 135.75C831.416 135.75 822.736 121.645 822.736 97.9112C822.736 74.584 831.416 60.2079 849.996 60.2079C860.575 60.2079 870.204 67.3959 873.188 79.602H895.702C893.532 57.9023 876.579 40.8137 849.861 40.8137C819.21 40.8137 799.951 62.9204 799.951 99.2674C799.951 136.021 821.38 155.28 849.454 155.28C874.409 155.28 891.09 139.141 895.702 114.729H873.188ZM920.521 104.15C921.334 93.1644 928.251 86.6545 936.66 86.6545C944.933 86.6545 952.663 92.3506 952.935 104.15H920.521ZM974.634 117.305C974.634 85.8407 961.75 69.9728 937.338 69.9728C912.926 69.9728 898.956 85.8407 898.956 110.389C898.956 139.141 912.112 153.652 938.559 153.652C955.511 153.652 968.667 144.43 973.549 128.155H951.85C950.358 133.58 944.39 136.971 937.609 136.971C927.302 136.971 920.521 129.24 919.842 117.305H974.634ZM1053.84 151.618V96.555C1053.84 79.1952 1042.72 69.9728 1027.53 69.9728C1014.78 69.9728 1006.78 74.8552 1001.89 83.8064V72.1428H981.822V151.618H1002.84V106.049C1002.84 93.9781 1008.27 87.7394 1019.12 87.7394C1029.15 87.7394 1032.68 91.13 1032.68 103.472V151.618H1053.84ZM1108.09 119.882C1108.09 129.783 1104.29 135.479 1095.88 135.479C1087.34 135.479 1083.81 129.647 1083.81 119.611V86.9257H1127.62V72.1428H1083.81V50.7143H1063.06V121.645C1063.06 138.869 1072.28 153.652 1095.61 153.652C1117.99 153.652 1127.62 138.598 1127.62 121.917V99.2674H1108.09V119.882ZM1156.1 104.15C1156.91 93.1644 1163.83 86.6545 1172.24 86.6545C1180.51 86.6545 1188.24 92.3506 1188.51 104.15H1156.1ZM1210.21 117.305C1210.21 85.8407 1197.19 69.9728 1172.92 69.9728C1148.5 69.9728 1134.4 85.8407 1134.4 110.389C1134.4 139.141 1147.69 153.652 1174.14 153.652C1191.09 153.652 1204.24 144.43 1208.99 128.155H1187.43C1185.94 133.58 1179.97 136.971 1173.19 136.971C1162.88 136.971 1156.1 129.24 1155.42 117.305H1210.21ZM1238.42 151.618V110.253C1238.42 97.5043 1244.66 90.9944 1257.68 90.9944C1259.58 90.9944 1261.48 91.13 1263.51 91.5369V69.9728H1260.66C1252.12 69.9728 1244.12 71.0578 1237.2 81.6364V72.1428H1217.4V151.618H1238.42Z" fill="#078F5B"/>
<path d="M522.678 261.275V174.092H504.267V206.844H470.255V174.092H452V261.275H470.255V222.128H504.267V261.275H522.678ZM547.017 261.275V196.706H530.011V261.275H547.017ZM547.017 188.908V173H530.011V188.908H547.017ZM585.399 249.11C576.973 249.11 570.889 241.156 570.889 229.459C570.889 216.202 575.569 209.495 585.555 209.495C595.072 209.495 599.909 216.514 599.909 230.55C599.909 241.468 593.668 249.11 585.399 249.11ZM616.135 261.275V173H599.284V205.128C594.448 198.266 588.051 194.991 580.094 194.991C563.399 194.991 553.57 208.716 553.57 228.367C553.57 250.202 565.272 262.991 581.498 262.991C589.455 262.991 595.384 260.028 599.597 253.477V261.275H616.135ZM662.785 236.789C662.629 244.431 656.076 250.826 647.339 250.826C641.878 250.826 638.914 248.486 638.914 243.651C638.914 238.037 642.19 235.385 651.864 233.514C658.105 232.266 661.225 231.33 662.941 229.615L662.785 236.789ZM679.948 261.275V220.413C679.948 204.193 672.927 194.991 652.332 194.991C631.581 194.991 624.248 204.349 623.936 217.761H639.85C640.63 211.835 643.907 208.092 651.552 208.092C658.261 208.092 662.473 210.587 662.473 214.798C662.473 219.321 660.133 221.037 651.552 222.128C634.389 224.468 621.908 226.651 621.908 245.367C621.908 255.817 628.773 262.991 643.439 262.991C652.176 262.991 659.041 260.028 663.097 255.505C663.253 257.532 663.565 259.716 664.033 261.275H679.948ZM728.626 263.303C728.626 271.881 723.01 277.183 716.769 277.183C707.876 277.183 703.351 272.505 703.351 264.862H687.437C687.437 281.55 697.11 292 715.989 292C732.683 292 745.789 281.394 745.789 262.991V196.706H728.626V236.165C728.626 243.028 723.322 248.174 715.521 248.174C708.344 248.174 704.599 244.119 704.599 236.165V196.706H687.437V238.661C687.437 252.853 697.578 262.055 711.152 262.055C719.265 262.055 726.286 258.624 728.626 252.853V263.303ZM792.751 236.789C792.595 244.431 786.042 250.826 777.149 250.826C771.844 250.826 768.88 248.486 768.88 243.651C768.88 238.037 772 235.385 781.83 233.514C788.071 232.266 791.191 231.33 792.907 229.615L792.751 236.789ZM809.914 261.275V220.413C809.914 204.193 802.893 194.991 782.298 194.991C761.547 194.991 754.214 204.349 753.902 217.761H769.816C770.596 211.835 773.717 208.092 781.518 208.092C788.227 208.092 792.439 210.587 792.439 214.798C792.439 219.321 790.099 221.037 781.518 222.128C764.355 224.468 751.874 226.651 751.874 245.367C751.874 255.817 758.583 262.991 773.405 262.991C781.986 262.991 788.851 260.028 792.907 255.505C793.063 257.532 793.531 259.716 794 261.275H809.914ZM854.068 235.541C854.068 243.651 850.947 248.174 844.082 248.174C837.218 248.174 834.253 243.495 834.253 235.385V208.716H869.982V196.706H834.253V179.239H817.403V236.945C817.403 250.982 824.892 262.991 843.926 262.991C862.181 262.991 869.982 250.826 869.982 237.101V218.697H854.068V235.541ZM935.199 261.275V196.706H918.349V233.982C918.349 242.56 913.668 248.642 905.087 248.642C897.754 248.642 894.165 244.743 894.165 236.633V196.706H877.003V239.284C877.003 253.477 886.052 262.991 899.002 262.991C907.895 262.991 914.604 259.56 919.129 252.229V261.275H935.199ZM959.851 261.275V173H942.688V261.275H959.851ZM984.19 261.275V173H967.028V261.275H984.19ZM1030.68 236.789C1030.53 244.431 1023.98 250.826 1015.08 250.826C1009.78 250.826 1006.81 248.486 1006.81 243.651C1006.81 238.037 1009.93 235.385 1019.76 233.514C1026 232.266 1028.97 231.33 1030.68 229.615V236.789ZM1047.85 261.275V220.413C1047.85 204.193 1040.67 194.991 1020.23 194.991C999.48 194.991 992.147 204.349 991.835 217.761H1007.75C1008.53 211.835 1011.65 208.092 1019.45 208.092C1026.16 208.092 1030.37 210.587 1030.37 214.798C1030.37 219.321 1028.03 221.037 1019.45 222.128C1002.13 224.468 989.651 226.651 989.651 245.367C989.651 255.817 996.516 262.991 1011.34 262.991C1019.92 262.991 1026.78 260.028 1030.84 255.505C1031 257.532 1031.46 259.716 1031.93 261.275H1047.85ZM1114 261.275V215.578C1114 202.633 1104.79 194.991 1091.53 194.991C1082.8 194.991 1074.99 199.358 1072.5 205.128V173H1055.34V261.275H1072.5V224.312C1072.5 215.578 1077.18 208.56 1085.76 208.56C1093.41 208.56 1096.68 211.523 1096.68 221.193V261.275H1114Z" fill="#ACCE22"/>
</svg>
