<svg width="1264" height="305" viewBox="0 0 1264 305" fill="none" xmlns="http://www.w3.org/2000/svg">
<path d="M58.5685 68.5846C70.5126 79.0304 80.3166 89.7758 102.236 110.839C99.7954 116.147 92.0469 122.312 88.0226 126.422C77.9622 136.782 72.3109 148.127 77.1056 162.725C78.8609 168.162 82.9705 173.3 85.7531 176.254C92.8596 183.959 100.052 190.637 107.801 198.215C112.424 203.823 119.573 210.244 125.053 215.681C130.233 220.819 136.826 227.797 147.914 229.423C174.071 233.148 181.734 209.26 194.32 203.181C200.058 212.044 249.375 255.496 252.971 264.229C257.679 275.66 224.844 317.485 207.677 297.878L197.275 287.646C193.422 289.016 188.455 294.196 183.147 296.978C170.903 304.941 152.88 306.868 140.636 303.186C105.103 294.324 52.061 230.28 21.7941 200.27C-21.4872 157.288 7.3245 117.688 42.215 83.9108C46.4105 79.8437 54.2875 70.8107 58.5685 68.5846Z" fill="white"/>
<path d="M704.6 196.707V236.166C704.6 244.12 708.344 248.174 715.521 248.174C723.322 248.174 728.627 243.028 728.627 236.166V196.707H745.789V262.991C745.789 281.395 732.683 292.001 715.988 292.001C697.11 292 687.437 281.551 687.437 264.863H703.351C703.351 272.505 707.876 277.183 716.769 277.183C723.009 277.183 728.627 271.881 728.627 263.303V252.853C726.287 258.624 719.266 262.055 711.153 262.055C697.579 262.055 687.437 252.853 687.437 238.661V196.707H704.6Z" fill="white"/>
<path fill-rule="evenodd" clip-rule="evenodd" d="M616.135 173.001V261.275H599.597V253.477C595.384 260.028 589.455 262.991 581.498 262.991C565.272 262.991 553.57 250.202 553.57 228.367C553.571 208.716 563.4 194.991 580.094 194.991C588.051 194.991 594.448 198.266 599.284 205.129V173.001H616.135ZM585.555 209.496C575.57 209.496 570.889 216.202 570.889 229.459C570.889 241.156 576.974 249.11 585.399 249.11C593.668 249.11 599.908 241.468 599.908 230.55C599.908 216.514 595.072 209.496 585.555 209.496Z" fill="white"/>
<path fill-rule="evenodd" clip-rule="evenodd" d="M652.332 194.991C672.927 194.991 679.947 204.193 679.947 220.413V261.275H664.033C663.565 259.715 663.254 257.532 663.098 255.505C659.041 260.027 652.176 262.991 643.439 262.991C628.773 262.991 621.907 255.816 621.907 245.367C621.908 226.652 634.39 224.468 651.552 222.129C660.133 221.037 662.474 219.321 662.474 214.798C662.474 210.587 658.261 208.091 651.552 208.091C643.907 208.091 640.631 211.835 639.851 217.761H623.936C624.248 204.349 631.581 194.991 652.332 194.991ZM662.942 229.615C661.225 231.33 658.105 232.267 651.864 233.514C642.191 235.386 638.914 238.037 638.914 243.652C638.914 248.486 641.879 250.826 647.339 250.826C656.076 250.826 662.629 244.431 662.785 236.789L662.942 229.615Z" fill="white"/>
<path fill-rule="evenodd" clip-rule="evenodd" d="M782.298 194.991C802.893 194.991 809.914 204.193 809.914 220.413V261.275H794C793.532 259.715 793.063 257.532 792.907 255.505C788.851 260.027 781.986 262.991 773.404 262.991C758.583 262.991 751.874 255.816 751.874 245.367C751.874 226.652 764.356 224.468 781.518 222.129C790.099 221.037 792.44 219.321 792.44 214.798C792.44 210.587 788.227 208.091 781.518 208.091C773.717 208.092 770.597 211.835 769.817 217.761H753.903C754.215 204.349 761.547 194.991 782.298 194.991ZM792.907 229.615C791.191 231.33 788.071 232.267 781.83 233.514C772.001 235.386 768.88 238.037 768.88 243.652C768.88 248.487 771.845 250.826 777.15 250.826C786.043 250.826 792.595 244.431 792.751 236.789L792.907 229.615Z" fill="white"/>
<path d="M834.253 179.239V196.707H869.983V208.715H834.253V235.385C834.253 243.495 837.218 248.174 844.083 248.174C850.948 248.174 854.068 243.651 854.069 235.542V218.697H869.983V237.101C869.983 250.826 862.181 262.991 843.927 262.991C824.892 262.991 817.403 250.982 817.403 236.945V179.239H834.253Z" fill="white"/>
<path d="M894.165 196.707V236.633C894.165 244.743 897.754 248.642 905.087 248.642C913.668 248.642 918.349 242.56 918.349 233.982V196.707H935.199V261.275H919.129V252.229C914.604 259.559 907.895 262.991 899.002 262.991C886.053 262.991 877.003 253.477 877.003 239.285V196.707H894.165Z" fill="white"/>
<path fill-rule="evenodd" clip-rule="evenodd" d="M1020.23 194.991C1040.67 194.991 1047.85 204.193 1047.85 220.413V261.275H1031.93C1031.46 259.715 1031 257.532 1030.84 255.505C1026.78 260.027 1019.92 262.991 1011.34 262.991C996.516 262.991 989.651 255.816 989.651 245.367C989.651 226.652 1002.13 224.468 1019.45 222.129C1028.03 221.037 1030.37 219.321 1030.37 214.798C1030.37 210.588 1026.16 208.092 1019.45 208.091C1011.65 208.091 1008.53 211.835 1007.75 217.761H991.835C992.147 204.349 999.481 194.991 1020.23 194.991ZM1030.68 229.615C1028.97 231.33 1026 232.267 1019.76 233.514C1009.93 235.386 1006.81 238.037 1006.81 243.652C1006.81 248.486 1009.78 250.826 1015.08 250.826C1023.98 250.826 1030.53 244.431 1030.68 236.789V229.615Z" fill="white"/>
<path d="M470.255 174.091V206.844H504.268V174.091H522.678V261.275H504.268V222.129H470.255V261.275H452V174.091H470.255Z" fill="white"/>
<path d="M547.018 196.707V261.275H530.011V196.707H547.018Z" fill="white"/>
<path d="M959.851 173.001V261.275H942.689V173.001H959.851Z" fill="white"/>
<path d="M984.191 173.001V261.275H967.028V173.001H984.191Z" fill="white"/>
<path d="M1072.5 173.001V205.129C1074.99 199.358 1082.8 194.991 1091.53 194.991C1104.79 194.991 1114 202.633 1114 215.578V261.275H1096.68V221.193C1096.68 211.523 1093.4 208.56 1085.76 208.56C1077.18 208.56 1072.5 215.578 1072.5 224.312V261.275H1055.34V173.001H1072.5Z" fill="white"/>
<path d="M118.289 10.1911C142.52 -5.22051 170.09 -2.65164 193.079 14.5153C201.812 21.0224 210.803 31.0398 218.594 38.9596L267.826 88.4489C287.091 107.842 304.471 121.156 305.113 151.295C305.713 180.149 288.204 196.289 269.581 214.826C261.704 222.703 254.169 230.28 246.335 237.857C238.843 233.191 230.025 221.162 222.704 215.04L202.112 194.319C205.965 190.124 210.246 186.142 214.527 181.904C227.841 168.761 238.458 152.75 228.74 139.993C194.578 103.304 228.74 139.993 194.577 103.304C154.635 58.2679 148.77 66.4015 110.926 103.175C87.3374 80.1863 86.6519 76.9757 67.4728 58.8668C76.3774 49.0204 108.186 16.6554 118.289 10.1911Z" fill="white"/>
<path d="M155.064 196.589C157.333 188.669 163.326 185.415 172.487 188.412C176.598 189.739 187.728 192.265 192.266 193.891C194.449 194.662 193.593 196.802 193.25 199.328C186.015 198.9 179.122 195.903 173.6 194.062C158.146 189.011 164.61 197.102 155.064 196.589Z" fill="white"/>
<path d="M122.528 192.093C132.417 189.696 147.699 181.391 151.981 196.417C145.346 196.759 147.871 194.234 143.462 192.864C136.998 190.338 127.536 198.387 113.751 198.686C113.237 191.408 115.507 193.806 122.528 192.093Z" fill="white"/>
<path fill-rule="evenodd" clip-rule="evenodd" d="M153.565 82.7555C155.534 83.9542 157.846 85.8803 157.846 89.7331L157.803 169.361C158.959 168.462 160.5 167.991 162.512 167.948L162.641 100.393C174.2 104.375 170.946 121.071 170.946 133.657V169.361C171.46 169.532 171.974 169.661 172.53 169.832C173.643 170.217 174.671 170.474 175.57 170.731L176.04 110.454C179.251 113.151 182.761 114.606 183.917 120.728L184.003 172.486C185.031 172.957 185.544 173.856 186.657 176.254C188.669 180.791 191.109 186.185 192.651 190.723C175.441 188.369 168.977 178.865 155.021 189.396C154.635 182.547 154.464 177.238 155.363 173.599H151.21C151.981 176.938 152.238 181.99 152.067 189.439C145.688 185.372 144.318 182.375 133.829 185.629C127.451 187.555 121.457 189.824 114.394 190.766C115.678 186.614 118.674 179.55 120.772 175.611C121.499 174.198 121.928 173.385 122.314 172.957V138.537C122.314 126.935 119.659 114.949 130.747 111.01L130.661 170.945C132.374 170.56 133.958 170.131 135.413 169.746V114.906C135.413 105.616 138.324 104.46 143.504 100.65L143.847 103.518L143.89 167.862C146.287 167.648 148.128 168.034 149.412 169.575V89.4762C149.412 86.7794 151.638 83.6548 153.565 82.7555ZM142.948 180.32C139.224 180.106 120.858 185.029 120.858 185.029C120.258 185.371 120.729 185.971 121.114 186.099C121.5 186.185 136.269 182.204 140.636 181.647C145.045 181.091 147.015 182.632 148.299 183.917C149.583 185.201 150.74 184.344 149.541 183.017C148.343 181.733 146.673 180.577 142.948 180.32ZM164.353 180.32C160.629 180.577 158.959 181.733 157.76 183.017C156.562 184.344 157.718 185.201 159.002 183.917C160.286 182.632 162.256 181.091 166.622 181.647C171.032 182.204 185.801 186.185 186.187 186.099C186.572 185.971 187.043 185.371 186.444 185.029C186.444 185.029 168.077 180.106 164.353 180.32ZM142.135 176.382C138.334 176.125 122.645 180.641 122.57 180.663C122.057 181.005 122.656 181.605 123.041 181.733C123.471 181.818 135.841 178.222 140.122 177.709C144.36 177.152 146.715 178.694 148.256 179.978C149.797 181.22 150.782 180.363 149.326 179.079C147.828 177.752 145.902 176.596 142.135 176.382ZM165.166 176.382C161.399 176.596 159.473 177.752 157.975 179.079C156.476 180.363 157.461 181.22 159.045 179.978C160.586 178.694 162.941 177.152 167.179 177.709C171.459 178.222 183.826 181.817 184.217 181.733C184.645 181.605 185.244 181.005 184.731 180.663C184.657 180.642 168.925 176.125 165.166 176.382ZM142.135 172.743C138.335 172.529 124.232 176.616 124.154 176.638C123.641 176.938 124.24 177.58 124.668 177.666C125.056 177.793 135.842 174.627 140.122 174.07C144.36 173.556 146.715 175.097 148.256 176.339C149.797 177.623 150.782 176.767 149.326 175.483C147.828 174.156 145.902 173 142.135 172.743ZM165.166 172.743C161.399 173 159.473 174.156 157.975 175.483C156.476 176.767 157.461 177.623 159.045 176.339C160.586 175.097 162.941 173.556 167.179 174.07C171.46 174.627 182.245 177.793 182.633 177.666C183.018 177.58 183.66 176.938 183.104 176.638C183.011 176.611 168.921 172.529 165.166 172.743Z" fill="white"/>
<path fill-rule="evenodd" clip-rule="evenodd" d="M384.537 40.8141C417.494 40.8142 435.667 62.6493 435.667 99.403C435.667 125.307 421.562 148.228 395.523 152.161C395.523 164.367 400.405 169.656 407.186 169.656C413.289 169.656 418.172 164.366 418.172 153.788H437.837C437.837 174.267 424.139 189.186 405.152 189.186C387.385 189.186 374.637 175.895 374.637 156.908V153.517C347.919 149.855 333 131.546 333 98.9967C333 62.6497 351.581 40.8141 384.537 40.8141ZM384.537 60.6149C365.686 60.6149 355.107 74.0416 355.107 99.403C355.107 124.765 365.957 136.021 384.537 136.021C400.676 136.021 413.561 124.764 413.561 99.403C413.561 74.0416 403.253 60.615 384.537 60.6149Z" fill="white"/>
<path d="M547.018 173.001V188.909H530.011V173.001H547.018Z" fill="white"/>
<path d="M849.862 40.8141C876.579 40.8143 893.531 57.9026 895.701 79.6022H873.189C870.205 67.3961 860.575 60.2077 849.996 60.2077C831.416 60.2079 822.737 74.5847 822.737 97.9118C822.737 121.645 831.416 135.75 848.911 135.751C862.067 135.751 870.205 128.155 873.189 114.728H895.701C891.09 139.14 874.409 155.28 849.454 155.28C821.38 155.28 799.951 136.021 799.951 99.2672C799.951 62.9204 819.211 40.8141 849.862 40.8141Z" fill="white"/>
<path d="M464.148 121.239C464.148 131.275 468.624 136.021 477.574 136.021C488.153 136.021 493.85 128.427 493.85 117.984V72.1432H514.6V151.618H494.799V140.362C489.374 149.449 481.101 153.653 470.115 153.653C454.248 153.653 443.126 141.853 443.126 124.494V72.1432H464.148V121.239Z" fill="white"/>
<path fill-rule="evenodd" clip-rule="evenodd" d="M638.424 69.9733C663.65 69.9733 672.33 81.3658 672.33 101.302V151.618H652.8C652.258 149.584 651.715 146.871 651.579 144.43C646.561 149.991 638.153 153.653 627.574 153.653C609.401 153.653 600.992 144.837 600.992 131.817C600.992 108.897 616.318 106.32 637.475 103.472C648.053 101.98 650.901 99.9458 650.902 94.3854C650.902 89.2317 645.748 86.112 637.475 86.112C627.981 86.112 624.184 90.8594 623.099 97.9118H603.569C603.975 81.5014 612.927 69.9733 638.424 69.9733ZM651.444 112.694C649.274 114.728 645.612 115.949 637.882 117.305C625.947 119.611 622.014 123.002 622.014 129.783C622.014 135.75 625.54 138.598 632.186 138.598C643.035 138.598 651.037 130.732 651.309 121.375L651.444 112.694Z" fill="white"/>
<path fill-rule="evenodd" clip-rule="evenodd" d="M937.338 69.9733C961.75 69.9733 974.635 85.8408 974.635 117.305H919.843C920.521 129.24 927.302 136.971 937.61 136.971C944.391 136.971 950.358 133.58 951.85 128.155H973.55C968.668 144.43 955.512 153.653 938.559 153.653C912.112 153.653 898.956 139.141 898.956 110.388C898.956 85.8407 912.926 69.9733 937.338 69.9733ZM936.66 86.6549C928.252 86.6549 921.334 93.1646 920.521 104.15H952.935C952.664 92.351 944.933 86.6551 936.66 86.6549Z" fill="white"/>
<path d="M1083.81 72.1432H1127.62V86.9254H1083.81V119.611C1083.81 129.647 1087.34 135.479 1095.88 135.479C1104.29 135.479 1108.09 129.783 1108.09 119.882V99.2672H1127.62V121.917C1127.62 138.598 1117.99 153.653 1095.61 153.653C1072.28 153.653 1063.06 138.869 1063.06 121.645V50.7145H1083.81V72.1432Z" fill="white"/>
<path fill-rule="evenodd" clip-rule="evenodd" d="M1172.92 69.9733C1197.19 69.9734 1210.21 85.8409 1210.21 117.305H1155.42C1156.1 129.24 1162.88 136.971 1173.19 136.971C1179.97 136.971 1185.94 133.58 1187.43 128.155H1208.99C1204.24 144.43 1191.09 153.653 1174.14 153.653C1147.69 153.653 1134.4 139.141 1134.4 110.388C1134.4 85.8407 1148.5 69.9733 1172.92 69.9733ZM1172.24 86.6549C1163.83 86.6551 1156.91 93.1647 1156.1 104.15H1188.51C1188.24 92.3508 1180.51 86.6549 1172.24 86.6549Z" fill="white"/>
<path d="M569.935 91.5368C567.9 91.1299 566.001 90.9948 564.103 90.9948C551.083 90.9948 544.844 97.505 544.844 110.254V151.618H523.822V72.1432H543.623V81.6364C550.54 71.0578 558.542 69.9733 567.086 69.9733H569.935V91.5368Z" fill="white"/>
<path d="M727.257 69.9733C742.447 69.9733 753.569 79.1955 753.569 96.5553V151.618H732.411V103.472C732.411 91.1306 728.885 87.7399 718.849 87.7399C707.863 87.7399 702.574 93.9782 702.574 106.048V151.618H681.552V72.1432H701.624V83.8063C706.507 74.8553 714.509 69.9734 727.257 69.9733Z" fill="white"/>
<path d="M1027.53 69.9733C1042.72 69.9733 1053.84 79.1955 1053.84 96.5553V151.618H1032.68V103.472C1032.68 91.1307 1029.16 87.74 1019.12 87.7399C1008.27 87.7399 1002.84 93.9782 1002.84 106.048V151.618H981.822V72.1432H1001.89V83.8063C1006.78 74.8553 1014.78 69.9733 1027.53 69.9733Z" fill="white"/>
<path d="M1263.51 91.5368C1261.48 91.1299 1259.58 90.9948 1257.68 90.9948C1244.66 90.9948 1238.42 97.505 1238.42 110.254V151.618H1217.4V72.1432H1237.2V81.6364C1244.12 71.0579 1252.12 69.9733 1260.66 69.9733H1263.51V91.5368Z" fill="white"/>
<path d="M597.602 56.4108C597.602 74.7197 592.176 83.3992 575.36 86.9254V78.9245C583.632 76.7545 587.7 72.0072 587.836 61.8356H575.36V40.0006H597.602V56.4108Z" fill="white"/>
</svg>
