<svg width="1000" height="1000" viewBox="0 0 1000 1000" fill="none" xmlns="http://www.w3.org/2000/svg">
<path fill-rule="evenodd" clip-rule="evenodd" d="M461.924 980.8C501.007 992.553 558.539 986.403 597.623 960.985C614.568 952.103 630.42 935.567 642.719 931.194L675.926 963.855C730.725 1026.44 835.539 892.931 820.507 856.444C809.028 828.566 651.601 689.861 633.29 661.574C593.113 680.979 568.652 757.232 485.155 745.343C449.762 740.15 428.717 717.876 412.182 701.477C394.69 684.122 371.868 663.624 357.11 645.722C332.375 621.534 309.417 600.216 286.732 575.618C277.85 566.188 264.731 549.79 259.128 532.435C243.822 485.835 261.861 449.621 293.975 416.551C306.82 403.432 331.555 383.754 339.344 366.808C269.377 299.574 238.083 265.274 199.956 231.93C186.291 239.036 161.146 267.87 147.754 280.852C36.3798 388.673 -55.5891 515.079 82.5693 652.281C179.184 748.076 348.5 952.513 461.924 980.8Z" fill="#078F5B"/>
<path fill-rule="evenodd" clip-rule="evenodd" d="M697.791 593.656C684.125 607.185 670.46 619.894 658.161 633.286L723.892 699.427C747.26 718.969 775.411 757.369 799.325 772.264C824.333 748.076 848.385 723.888 873.529 698.744C932.974 639.572 988.866 588.053 986.953 495.947C984.903 399.742 929.421 357.242 867.926 295.337L710.773 137.364C685.902 112.083 657.204 80.1055 629.326 59.3339C555.942 4.53513 467.936 -3.66419 390.59 45.5317C358.339 66.1666 256.804 169.478 228.38 200.909C289.601 258.714 291.788 268.963 367.085 342.347C487.888 224.96 506.61 198.995 634.109 342.757C743.16 459.87 634.109 342.757 743.16 459.87C774.181 500.594 740.29 551.703 697.791 593.656Z" fill="#ACCE22"/>
</svg>
