<?xml version="1.0" encoding="UTF-8"?>
<!DOCTYPE svg PUBLIC "-//W3C//DTD SVG 1.1//EN" "http://www.w3.org/Graphics/SVG/1.1/DTD/svg11.dtd">
<!-- Creator: CorelDRAW X7 -->
<svg xmlns="http://www.w3.org/2000/svg" xml:space="preserve" width="49.2892mm" height="49.0831mm" version="1.1" style="shape-rendering:geometricPrecision; text-rendering:geometricPrecision; image-rendering:optimizeQuality; fill-rule:evenodd; clip-rule:evenodd"
viewBox="0 0 364 363"
 xmlns:xlink="http://www.w3.org/1999/xlink">
 <defs>
  <style type="text/css">
   <![CDATA[
    .fil2 {fill:#078F5B}
    .fil0 {fill:#ACCE22}
    .fil1 {fill:#078F5B}
   ]]>
  </style>
 </defs>
 <g id="Layer_x0020_1">
  <metadata id="CorelCorpID_0Corel-Layer"/>
  <path class="fil0" d="M256 217c-5,5 -10,10 -15,15l25 25c9,7 19,22 28,27 9,-9 18,-18 28,-27 22,-23 43,-42 42,-76 0,-36 -21,-52 -44,-75l-59 -59c-9,-10 -20,-22 -30,-30 -28,-20 -61,-23 -90,-5 -12,8 -50,47 -61,58 23,22 24,26 52,53 46,-44 53,-53 100,0 41,44 0,0 41,44 12,15 -1,35 -17,50z"/>
  <path class="fil1" d="M108 146c5,-6 10,-10 15,-15l-25 -25c-8,-7 -19,-22 -28,-27 -9,9 -18,18 -28,27 -22,22 -43,42 -42,76 1,36 22,52 45,75l58 59c10,10 20,22 31,29 27,21 60,24 89,6 12,-8 50,-47 61,-58 -23,-22 -24,-26 -52,-53 -45,44 -52,53 -100,-1 -41,-43 0,0 -41,-43 -11,-16 1,-35 17,-50z"/>
  <path class="fil2" d="M222 159c-4,0 -6,1 -8,5 0,1 2,3 3,6 1,2 2,4 2,7 4,16 -2,32 -14,42 -17,14 -42,11 -56,-3 -23,-23 -12,-64 21,-71 10,-2 20,0 28,4 1,1 3,2 4,2 2,-2 4,-3 4,-8 -1,-1 -5,-3 -8,-4 -21,-9 -46,-2 -59,15 -18,22 -14,51 3,68 7,7 19,14 33,15 25,2 48,-15 54,-40 1,-7 1,-14 0,-22 -1,-4 -5,-13 -7,-16zm-39 16c-2,0 -3,-1 -5,-1 -10,1 -15,13 -8,20 6,6 16,5 19,-3 2,-5 1,-8 1,-9 1,0 2,-1 3,-2 3,-3 7,-7 10,-11 1,-1 2,-1 3,-2l11 -11c0,0 3,-1 4,-1 2,-1 2,0 4,-2 1,-1 9,-9 10,-10l-13 0 0 -13c-1,0 -9,9 -10,10 -2,2 -1,2 -2,4 0,1 -1,4 -1,4 0,1 -4,5 -5,6l-21 21zm25 -5c-1,0 -7,6 -8,7 1,3 2,4 2,8 1,22 -25,33 -40,18 -12,-12 -8,-33 9,-39 4,-2 9,-2 13,-1 2,1 3,1 4,1 2,-2 5,-4 7,-7 -1,-1 -8,-3 -11,-4 -31,-5 -52,33 -29,57 10,11 30,14 44,3 11,-9 16,-24 11,-38 -1,-2 -2,-4 -2,-5z"/>
 </g>
</svg>
