<?xml version="1.0" encoding="UTF-8"?>
<!DOCTYPE svg PUBLIC "-//W3C//DTD SVG 1.1//EN" "http://www.w3.org/Graphics/SVG/1.1/DTD/svg11.dtd">
<!-- Creator: CorelDRAW X7 -->
<svg xmlns="http://www.w3.org/2000/svg" xml:space="preserve" width="49.2892mm" height="49.0831mm" version="1.1" style="shape-rendering:geometricPrecision; text-rendering:geometricPrecision; image-rendering:optimizeQuality; fill-rule:evenodd; clip-rule:evenodd"
viewBox="0 0 452 450"
 xmlns:xlink="http://www.w3.org/1999/xlink">
 <defs>
  <style type="text/css">
   <![CDATA[
    .fil2 {fill:#078F5B}
    .fil0 {fill:#ACCE22}
    .fil1 {fill:#078F5B}
   ]]>
  </style>
 </defs>
 <g id="Layer_x0020_1">
  <metadata id="CorelCorpID_0Corel-Layer"/>
  <path class="fil0" d="M318 269c-7,7 -13,13 -19,19l31 30c11,10 24,27 35,34 11,-11 22,-22 34,-34 28,-27 54,-51 53,-94 -1,-45 -27,-64 -55,-93l-73 -73c-12,-12 -25,-27 -38,-36 -34,-26 -75,-30 -111,-7 -15,10 -62,58 -75,72 28,27 29,32 64,66 56,-55 65,-67 124,0 51,54 0,0 51,54 14,19 -2,43 -21,62z"/>
  <path class="fil1" d="M134 180c7,-6 13,-12 19,-18l-31 -31c-11,-9 -24,-26 -35,-33 -12,11 -23,22 -34,34 -28,27 -54,51 -53,94 1,44 27,64 55,93l73 73c12,12 25,27 38,36 34,26 75,30 111,7 15,-10 62,-58 75,-72 -28,-27 -29,-32 -64,-66 -56,55 -65,67 -124,0 -51,-54 0,0 -51,-54 -14,-19 1,-43 21,-63z"/>
  <path class="fil2" d="M221 244c20,0 9,-2 17,14 2,4 5,7 8,10 7,6 18,10 30,7 17,-4 34,-24 24,-47 -8,-18 -17,-31 -34,-42 -3,-2 -3,-2 -3,-6 -3,-14 -20,-17 -28,-6 -4,5 -2,10 -3,16l-10 1c-1,-6 0,-12 -3,-16 -2,-4 -6,-7 -12,-8 -8,0 -14,5 -16,13 -1,4 0,3 -3,6 -17,11 -26,24 -34,42 -10,22 6,43 23,47 20,5 39,-8 42,-27 1,-3 0,-3 2,-4zm37 14c-1,-4 -3,-6 -2,-13 1,-9 8,-15 16,-17 8,-1 9,1 14,3 -12,-17 -38,-6 -36,14 1,3 2,5 3,8 2,3 4,3 5,5zm-83 0c-3,-11 -3,-18 4,-24 6,-7 14,-7 24,-3 -4,-8 -20,-13 -29,-3 -4,3 -7,8 -7,15 0,3 1,6 2,8 2,3 3,6 6,7zm5 -41c-33,7 -23,57 11,49 12,-2 23,-15 20,-29 -3,-13 -15,-24 -31,-20zm83 0c-33,6 -23,56 10,50 12,-3 23,-15 20,-30 -2,-12 -14,-24 -30,-20z"/>
 </g>
</svg>
