<svg width="201" height="231" viewBox="0 0 201 231" fill="none" xmlns="http://www.w3.org/2000/svg">
<path d="M41.1347 64.4703C31.7496 81.5721 33.4179 80.3211 33.4179 103.888V197.948C33.4179 217.552 35.5036 219.43 47.8086 230.692C31.9582 229.441 19.2365 219.847 17.3593 205.457C15.8994 196.28 16.7338 110.981 16.9423 95.3375C16.9423 78.2356 25.9099 66.973 41.1347 64.4703Z" fill="white"/>
<path d="M75.7558 12.7476C69.2905 6.49085 76.1723 -4.14574 87.4345 1.69392C90.3542 13.3728 84.7233 8.5763 92.2314 18.3785L119.97 56.7535C123.724 56.3364 126.018 56.5442 129.355 57.3785C133.319 53.415 148.543 30.6833 152.297 28.3892C152.088 23.5924 151.254 19.6292 154.8 17.1265C161.891 11.9133 169.607 21.5066 164.185 27.7633C161.265 31.1002 158.762 28.3889 155.425 31.1002L149.377 38.817C147.5 41.111 145.831 43.4052 144.163 45.9078L132.692 60.7154L133.943 65.7213C136.655 66.5555 140.409 66.9727 144.58 67.1812L135.82 87.6197L92.8574 86.9947C55.5253 86.369 63.0332 78.4433 63.0332 124.118V193.151C63.0332 202.953 64.9104 200.242 73.6699 198.782L111.063 192.011L105.615 179.219H118.333L138.841 227.373H126.124L119.858 212.662L72.0009 223.392C59.0705 226.312 50.311 227.146 43.4287 217.552C37.1719 208.584 39.8828 125.786 39.8828 103.887C39.8828 89.9139 38.2146 80.1115 45.3056 69.8922C54.2737 56.5445 89.1033 64.4702 113.922 64.8873C117.05 59.4647 116.633 60.09 112.879 55.0845C110.376 51.7476 108.499 48.8277 105.996 45.4908C104.536 43.614 103.702 42.7794 102.242 40.6939L89.1035 22.3404C87.6436 20.4635 87.0173 19.2124 85.9746 17.7525C81.3865 11.4962 80.5522 17.1265 75.7558 12.7476Z" fill="white"/>
<path d="M156.885 67.8072C161.89 68.0158 166.687 68.2236 170.441 68.4322C184.832 69.6835 193.592 66.9724 198.389 79.9029C201.308 87.411 200.474 143.304 200.474 155.61C200.682 175.214 203.602 194.194 183.372 198.365L142.077 207.542L133.735 187.728L154.591 183.974C163.767 182.514 178.992 180.429 186.709 177.926C187.543 154.151 188.378 114.941 186.918 93.2506C186.501 86.5772 182.329 88.4542 175.238 88.2457L148.543 87.8287L156.885 67.8072Z" fill="white"/>
<path d="M10.0586 96.5875C10.4757 122.032 10.6848 158.112 9.85055 182.096C8.80776 180.219 7.34748 178.968 5.88766 176.465C-1.82882 161.866 0.256766 143.931 0.256796 125.995C0.256796 112.856 3.17622 105.764 10.0586 96.5875Z" fill="white"/>
<path d="M156.885 104.93C158.345 104.305 160.431 102.845 162.308 103.053C164.184 103.471 165.227 105.139 165.436 107.224V127.038C165.436 133.503 165.436 139.969 165.644 146.434C165.436 148.1 165.018 149.141 164.81 148.936V149.145C164.184 150.813 162.933 151.231 161.265 152.065C158.97 153.316 152.087 156.653 145.205 159.99C138.532 163.118 131.859 166.246 129.772 166.664C129.355 167.914 128.52 167.29 127.061 167.082C122.055 166.039 117.05 164.995 111.836 163.953C106.414 162.701 100.991 161.659 95.5683 160.616C90.7719 159.573 87.4347 159.572 87.2255 154.151C87.017 148.937 86.8091 143.722 86.6005 138.717C86.392 133.504 86.1831 128.288 85.9746 123.075C85.766 119.321 84.7239 110.354 85.9746 107.642C88.4679 100.785 96.7572 106.348 96.8193 106.39C97.0278 112.855 97.2367 119.321 97.4453 125.578C97.6538 131.834 97.8627 138.092 98.0713 144.348C98.28 152.272 100.992 152.065 107.248 153.733C109.544 154.359 119.97 156.653 121.013 157.279C122.472 157.696 123.933 157.905 125.601 158.322C127.269 158.113 128.521 158.739 129.563 159.156V158.948C133.735 156.654 138.74 154.15 143.12 152.273C146.248 150.813 149.586 149.145 152.714 147.685C154.173 147.06 154.174 146.642 155.425 145.808C156.05 144.14 156.676 143.93 156.885 141.845C157.302 137.883 157.093 131 156.885 123.91C156.676 116.819 156.468 109.519 156.885 104.93Z" fill="white"/>
<path fill-rule="evenodd" clip-rule="evenodd" d="M143.328 102.845C148.333 100.76 154.799 97.0057 154.799 106.182V123.284C154.799 128.706 154.799 134.338 155.008 139.968C155.008 143.304 153.756 144.766 150.837 146.017C149.168 146.851 144.162 149.145 139.574 151.439C134.779 153.733 130.191 156.027 129.563 156.028C129.562 155.889 129.558 155.748 129.557 155.609C129.03 157.24 127.389 156.051 123.098 155.193C119.97 154.567 117.675 153.733 114.756 152.899C105.788 150.605 100.783 150.812 100.573 144.974C100.573 138.718 100.365 132.46 100.156 126.204C99.9477 119.739 99.7388 113.481 99.5302 107.016C99.1131 95.7541 110.584 102.636 121.012 105.973C123.722 107.016 126.018 107.85 128.728 108.684C133.942 106.599 138.323 104.931 143.328 102.845ZM127.061 114.732C124.976 113.481 122.89 110.978 120.179 112.021V145.39C122.89 146.224 129.981 139.551 133.109 137.048C135.612 134.963 143.954 128.914 144.997 126.829C143.953 124.743 130.607 117.026 127.061 114.732Z" fill="white"/>
</svg>
