<svg width="184" height="223" viewBox="0 0 184 223" fill="none" xmlns="http://www.w3.org/2000/svg">
<path fill-rule="evenodd" clip-rule="evenodd" d="M28.9644 28.3975C26.8092 31.9472 24.5273 35.4969 22.2453 39.1734C10.4553 38.2859 9.56788 36.7646 2.4685 43.9908C0.313332 48.3011 -0.193767 88.2351 0.0597827 129.057C0.440107 169.371 1.58108 210.192 2.72205 219.193C11.5963 228.955 36.4441 216.911 60.9116 209.432C83.731 202.459 104.142 196.247 122.651 190.669C139.385 185.598 154.725 181.034 168.67 176.724C175.769 174.695 178.432 175.456 181.348 167.723C181.348 167.089 181.474 166.582 181.601 165.948C181.855 148.326 182.235 130.578 182.488 112.703C182.869 94.8274 183.249 76.6987 183.503 58.5699C180.84 53.2453 179.953 53.4989 173.741 53.1186C166.515 52.4847 143.442 50.7099 118.721 48.5547C90.0698 45.8924 59.1368 42.8498 56.3477 41.3285C58.1226 35.2434 69.152 35.2434 78.5333 33.4685C86.5201 32.074 93.7462 30.4259 100.846 28.7778C114.284 25.4817 127.088 22.9462 138.751 20.4107C144.203 19.2697 150.161 17.8752 155.232 16.7343C156.88 16.3539 161.824 14.9594 163.219 14.9594C167.783 15.0862 165.247 16.1004 168.67 19.2697C179.573 29.6653 184.644 0.760648 169.811 0C162.838 4.05679 167.656 8.24035 161.064 9.88842C144.456 12.1704 126.201 14.8326 105.917 17.6217C83.3507 20.791 57.869 24.4675 28.9644 28.3975ZM173.487 141.227C172.093 140.593 171.966 139.452 171.459 137.17C171.713 137.804 171.966 138.438 172.347 138.945C176.023 138.438 175.769 132.86 176.277 128.296C176.784 132.987 176.277 139.452 173.487 141.227ZM123.538 135.902C123.665 136.917 123.665 137.804 123.665 138.691C125.567 138.184 127.595 137.931 129.497 137.55C131.779 137.297 131.779 137.424 132.286 139.579C129.877 143.255 126.454 140.34 123.538 143.382C124.299 143.889 123.792 144.27 126.201 143.762C131.652 142.875 131.018 142.114 132.159 144.65C131.652 146.932 132.032 145.157 131.525 145.918C123.285 149.087 123.412 145.284 123.285 150.228C123.919 150.228 124.552 150.355 125.186 150.355C129.75 149.974 131.272 147.439 131.652 151.622C129.497 153.017 126.074 153.271 123.538 153.778C123.285 160.877 128.229 163.286 133.3 163.159C133.427 155.299 133.553 147.312 133.553 139.452C133.68 132.86 132.032 121.07 137.864 120.309C143.442 119.802 141.794 130.958 141.667 137.55C141.54 145.411 141.414 153.397 141.287 161.257C146.104 159.102 150.541 154.919 150.415 148.326C148.133 148.833 145.09 149.848 143.315 149.341C143.569 145.918 143.695 146.805 150.415 145.537C150.541 144.65 150.541 143.762 150.668 143.002C148.386 143.509 146.104 143.889 143.822 144.396C143.569 143.889 143.062 143.129 142.808 142.748C144.71 138.438 148.006 141.607 150.668 138.691C149.274 137.677 148.259 138.311 145.977 138.691C143.442 139.072 143.569 139.072 142.935 137.297C144.076 134.381 145.977 134.761 150.541 134.254C150.668 133.494 150.668 132.606 150.795 131.846C144.076 132.86 143.695 134.001 143.442 130.451C147.879 127.916 150.668 131.465 151.048 127.028C150.922 127.028 150.795 126.775 150.795 126.901C150.668 127.028 150.541 126.775 150.415 126.775C146.104 126.141 143.822 129.817 143.569 125.127C144.963 124.366 145.724 124.366 147.372 124.112C148.766 123.986 151.809 124.366 151.175 121.83C150.288 120.563 149.4 121.197 147.752 121.323C146.104 121.577 144.963 121.83 143.569 121.45C144.076 117.52 144.836 119.168 149.02 118.408C149.781 118.154 150.415 117.9 151.175 117.52C150.922 113.21 148.006 117.647 143.695 115.999C144.076 111.562 145.851 113.97 149.527 113.083C152.316 112.449 150.541 113.717 151.302 111.815C151.048 108.773 151.936 110.421 150.034 110.04C150.034 110.04 147.752 110.294 147.499 110.294C145.344 110.547 144.836 111.055 143.695 109.28C145.47 106.237 148.006 108.139 150.034 107.378C151.936 106.744 151.302 108.392 151.429 104.843C148.386 102.941 144.203 107.758 143.949 102.434C145.217 101.8 146.104 101.8 147.752 101.673C149.147 101.673 152.189 102.307 151.429 99.5181C150.922 97.7432 146.611 99.8984 143.949 98.6307C144.329 95.3345 144.583 96.2219 151.429 95.9684C150.034 84.939 144.076 84.939 138.371 85.0658C129.497 85.0658 125.693 86.5871 123.792 97.2361C125.567 97.1094 127.342 97.1094 129.116 96.9826C131.905 96.729 132.032 96.3487 132.286 99.2645C130.004 100.406 126.454 99.3913 123.919 100.532C123.919 101.293 123.792 102.054 123.792 102.814C126.201 103.702 130.004 102.307 132.159 103.195C131.905 106.364 131.398 105.857 128.482 105.984C127.849 105.984 126.201 105.984 125.693 106.11C122.397 106.744 124.552 105.477 123.665 107.378C123.285 110.167 123.792 109.533 128.482 109.026C130.764 108.773 131.272 108.392 132.032 110.294C130.131 113.337 127.468 111.308 125.186 112.196C122.778 113.083 124.045 111.055 123.665 114.351C123.792 115.999 122.904 115.872 128.356 115.111C131.398 114.604 131.779 114.097 132.032 117.267C130.511 118.027 129.243 118.027 127.468 118.154C124.552 118.408 123.919 117.647 123.538 120.563C124.172 120.816 124.933 120.943 125.567 121.07C130.004 121.07 131.652 118.534 131.905 122.845C129.75 124.112 126.074 123.352 123.665 124.619C123.665 125.38 123.538 126.141 123.538 126.901C125.947 127.662 129.75 126.014 131.905 126.648C131.652 129.564 131.525 129.31 128.736 129.69C127.849 129.69 126.708 129.817 125.947 129.944C125.44 130.071 125.06 130.071 124.552 130.198C123.665 130.578 123.919 130.451 123.412 130.831C123.792 135.649 126.961 130.831 131.905 132.226C131.525 135.902 131.398 134.761 123.538 135.902ZM176.277 113.463C175.896 112.322 176.403 112.576 175.769 112.829C175.769 112.449 175.643 112.069 175.643 111.815C174.375 109.026 174.502 109.66 172.854 108.012C172.727 107.125 172.727 106.364 172.6 105.477C172.093 102.18 170.065 102.687 167.783 102.814C168.797 97.3629 167.909 96.222 165.627 88.1084C162.205 76.0648 156.119 67.9512 145.597 65.4157C142.047 64.6551 141.287 65.0354 138.371 65.0354C136.216 64.9086 137.61 63.8944 130.891 64.7818C124.299 65.796 117.707 69.7261 112.889 75.3041C107.691 81.3893 105.663 89.1226 102.62 97.87C100.846 102.941 100.846 101.8 101.86 107.378C98.8172 107.632 95.6479 107.378 94.6337 111.181C94.3801 112.449 94.1266 113.717 93.9998 114.858C92.6053 116.126 92.3517 115.745 91.084 117.52C84.2381 127.155 83.9846 143.509 85.2523 154.285C86.9004 168.483 90.7036 180.654 103.761 177.104C117.58 173.301 115.298 156.186 115.171 142.114C115.044 136.029 114.411 128.169 112.762 122.718C109.973 113.337 108.706 115.618 102.367 111.942C102.494 111.815 102.747 111.562 102.874 111.688C103.001 111.815 103.254 111.562 103.381 111.562C103.381 111.435 103.635 111.435 103.761 111.308C103.888 111.308 104.142 111.308 104.269 111.181C105.917 110.674 107.058 111.942 106.297 105.73C105.536 100.913 104.776 101.8 106.17 97.4897C107.058 94.5739 107.691 91.151 109.34 89.8832C111.875 87.9816 111.114 90.2635 113.523 86.2068C115.805 82.2767 116.312 81.7696 119.355 79.1074C123.665 75.5577 125.567 73.7828 131.398 72.3883C136.723 71.2473 140.019 71.2474 145.09 72.7686C151.302 74.5435 156.5 79.1074 159.669 85.3193C162.965 91.7848 161.697 82.9106 164.994 94.8274C165.881 98.1236 165.247 98.2503 164.74 101.927C163.853 108.899 165.247 104.589 167.276 106.617C164.867 109.28 162.205 107.505 159.542 117.52C158.401 121.704 156.626 132.987 157.514 136.79C155.866 141.481 156.753 156.186 159.035 159.482C162.205 164.427 169.431 160.877 172.473 156.186C178.432 147.185 179.319 120.563 176.53 114.858C176.53 114.604 176.403 114.478 176.277 114.224C176.277 113.97 176.277 113.717 176.277 113.463ZM176.657 137.804C174.375 153.397 164.867 153.778 165.754 135.522C166.895 113.717 176.403 113.463 177.164 125.38C175.896 122.971 175.389 120.056 172.854 123.986C171.332 126.268 170.698 129.817 170.572 133.24C170.318 136.41 170.698 140.72 172.093 142.241C174.375 144.65 175.769 139.706 176.657 137.804ZM174.882 114.224C172.854 112.069 169.811 112.703 168.163 115.238C162.331 124.239 167.909 142.114 158.401 140.466C157.767 137.804 158.021 138.311 158.401 137.55C158.528 138.945 158.528 139.706 160.43 139.199C163.726 138.565 163.346 133.874 163.726 129.564C164.36 121.197 166.008 119.295 166.642 115.999C164.36 116.506 163.346 116.633 162.205 114.985C162.838 112.196 164.486 110.547 166.768 109.407C167.276 111.308 166.388 112.576 169.177 112.449C171.332 112.196 171.839 110.801 172.727 110.294C173.361 111.688 173.868 111.815 174.628 113.463C174.755 113.463 175.009 113.463 175.136 113.463C175.136 113.717 175.009 113.97 174.882 114.224ZM87.7878 141.607C86.3933 161.004 93.4927 159.863 95.014 151.242C92.8588 155.552 90.4501 154.665 89.0556 150.989C88.0414 148.326 87.9146 144.903 87.7878 141.607ZM90.4501 122.971C106.55 111.688 104.902 144.143 106.55 147.946C107.311 149.594 108.579 150.101 110.988 149.721C113.777 149.214 113.903 148.073 114.411 145.157C112.889 147.439 112.382 148.326 108.959 148.073C106.297 145.157 107.184 140.213 106.424 135.015C105.663 129.437 104.015 127.028 103.128 122.971C106.55 122.971 107.438 123.098 109.34 120.563C108.706 117.393 105.917 115.872 103.128 115.111C102.367 117.647 103.508 118.915 99.4511 119.295C96.7888 119.675 95.9014 118.661 95.1408 118.281C95.014 118.281 94.8872 118.154 94.7604 118.027C94.6337 117.9 94.3801 117.9 94.1266 117.774C92.9856 119.675 91.4643 120.563 90.4501 122.971ZM86.3933 138.565C87.7878 136.029 87.5343 135.776 89.4359 133.62C95.7746 132.733 97.4227 142.748 96.6621 149.721C96.2817 153.271 95.1408 157.074 92.9856 158.468C89.4359 160.75 88.0414 156.44 86.7736 154.412C89.943 172.794 104.269 167.85 103.635 146.171C102.874 121.197 88.4217 121.957 86.3933 138.565ZM41.8954 156.82C19.8366 169.498 34.6693 194.599 52.4177 182.936C67.7574 172.794 60.151 146.171 41.8954 156.82ZM44.6845 83.6713C60.6581 83.6713 75.4907 83.5445 89.3091 83.4177C91.4643 77.2058 90.7036 73.5293 90.4501 66.8102C80.1814 66.5567 69.2787 66.1764 57.869 65.796C45.6987 65.2889 32.8944 64.9086 19.3295 64.4015C19.3295 90.01 18.0618 83.798 44.6845 83.6713ZM37.8386 96.8558C6.14496 109.533 20.9776 157.074 54.5729 142.621C81.3223 131.212 69.7858 84.0516 37.8386 96.8558Z" fill="white"/>
</svg>
