<?xml version="1.0" encoding="UTF-8"?>
<!DOCTYPE svg PUBLIC "-//W3C//DTD SVG 1.1//EN" "http://www.w3.org/Graphics/SVG/1.1/DTD/svg11.dtd">
<!-- Creator: CorelDRAW X7 -->
<svg xmlns="http://www.w3.org/2000/svg" xml:space="preserve" width="122.061mm" height="88.4048mm" version="1.1" style="shape-rendering:geometricPrecision; text-rendering:geometricPrecision; image-rendering:optimizeQuality; fill-rule:evenodd; clip-rule:evenodd"
viewBox="0 0 3639 2635"
 xmlns:xlink="http://www.w3.org/1999/xlink">
 <defs>
  <style type="text/css">
   <![CDATA[
    .fil2 {fill:none}
    .fil3 {fill:#FEFEFE}
    .fil0 {fill:#078F5B}
    .fil4 {fill:#ACCE22;fill-rule:nonzero}
    .fil1 {fill:#ACCE22}
   ]]>
  </style>
   <clipPath id="id0">
    <path d="M298 0l3043 0c164,0 298,134 298,298l0 2039c0,164 -134,298 -298,298l-3043 0c-164,0 -298,-134 -298,-298l0 -2039c0,-164 134,-298 298,-298z"/>
   </clipPath>
 </defs>
 <g id="Layer_x0020_1">
  <metadata id="CorelCorpID_0Corel-Layer"/>
  <path class="fil0" d="M298 0l3043 0c164,0 298,134 298,298l0 2039c0,164 -134,298 -298,298l-3043 0c-164,0 -298,-134 -298,-298l0 -2039c0,-164 134,-298 298,-298z"/>
  <g style="clip-path:url(#id0)">
   <g id="_618965200">
    <path id="1" class="fil1" d="M3247 1953c-73,73 -146,141 -212,213l352 354c126,105 277,312 405,391 134,-130 263,-260 398,-394 319,-318 618,-594 608,-1088 -11,-515 -309,-744 -638,-1075l-843 -847c-133,-136 -287,-307 -436,-418 -394,-294 -866,-339 -1281,-74 -173,110 -717,664 -870,832 329,311 341,365 744,759 648,-630 748,-769 1432,2 585,628 0,0 585,628 166,218 -16,492 -244,717z"/>
   </g>
  </g>
  <path class="fil2" d="M298 0l3043 0c164,0 298,134 298,298l0 2039c0,164 -134,298 -298,298l-3043 0c-164,0 -298,-134 -298,-298l0 -2039c0,-164 134,-298 298,-298z"/>
  <path class="fil3" d="M465 663c-17,28 -35,56 -53,85 -93,-7 -100,-19 -156,38 -17,34 -21,349 -19,671 3,318 12,640 21,711 70,77 266,-18 459,-77 180,-55 341,-104 487,-148 132,-40 253,-76 363,-110 56,-16 77,-10 100,-71 0,-5 1,-9 2,-14 2,-139 5,-279 7,-420 3,-141 6,-284 8,-427 -21,-42 -28,-40 -77,-43 -57,-5 -239,-19 -434,-36 -226,-21 -470,-45 -492,-57 14,-48 101,-48 175,-62 63,-11 120,-24 176,-37 106,-26 207,-46 299,-66 43,-9 90,-20 130,-29 13,-3 52,-14 63,-14 36,1 16,9 43,34 86,82 126,-146 9,-152 -55,32 -17,65 -69,78 -131,18 -275,39 -435,61 -178,25 -379,54 -607,85zm1140 890c-11,-5 -12,-14 -16,-32 2,5 4,10 7,14 29,-4 27,-48 31,-84 4,37 0,88 -22,102zm-394 -42c1,8 1,15 1,22 15,-4 31,-6 46,-9 18,-2 18,-1 22,16 -19,29 -46,6 -69,30 6,4 2,7 21,3 43,-7 38,-13 47,7 -4,18 -1,4 -5,10 -65,25 -64,-5 -65,34 5,0 10,1 15,1 36,-3 48,-23 51,10 -17,11 -44,13 -64,17 -2,56 37,75 77,74 1,-62 2,-125 2,-187 1,-52 -12,-145 34,-151 44,-4 31,84 30,136 -1,62 -2,125 -3,187 38,-17 73,-50 72,-102 -18,4 -42,12 -56,8 2,-27 3,-20 56,-30 1,-7 1,-14 2,-20 -18,4 -36,7 -54,11 -2,-4 -6,-10 -8,-13 15,-34 41,-9 62,-32 -11,-8 -19,-3 -37,0 -20,3 -19,3 -24,-11 9,-23 24,-20 60,-24 1,-6 1,-13 2,-19 -53,8 -56,17 -58,-11 35,-20 57,8 60,-27 -1,0 -2,-2 -2,-1 -1,1 -2,-1 -3,-1 -34,-5 -52,24 -54,-13 11,-6 17,-6 30,-8 11,-1 35,2 30,-18 -7,-10 -14,-5 -27,-4 -13,2 -22,4 -33,1 4,-31 10,-18 43,-24 6,-2 11,-4 17,-7 -2,-34 -25,1 -59,-12 3,-35 17,-16 46,-23 22,-5 8,5 14,-10 -2,-24 5,-11 -10,-14 0,0 -18,2 -20,2 -17,2 -21,6 -30,-8 14,-24 34,-9 50,-15 15,-5 10,8 11,-20 -24,-15 -57,23 -59,-19 10,-5 17,-5 30,-6 11,0 35,5 29,-17 -4,-14 -38,3 -59,-7 3,-26 5,-19 59,-21 -11,-87 -58,-87 -103,-86 -70,0 -100,12 -115,96 14,-1 28,-1 42,-2 22,-2 23,-5 25,18 -18,9 -46,1 -66,10 0,6 -1,12 -1,18 19,7 49,-4 66,3 -2,25 -6,21 -29,22 -5,0 -18,0 -22,1 -26,5 -9,-5 -16,10 -3,22 1,17 38,13 18,-2 22,-5 28,10 -15,24 -36,8 -54,15 -19,7 -9,-9 -12,17 1,13 -6,12 37,6 24,-4 27,-8 29,17 -12,6 -22,6 -36,7 -23,2 -28,-4 -31,19 5,2 11,3 16,4 35,0 48,-20 50,14 -17,10 -46,4 -65,14 0,6 -1,12 -1,18 19,6 49,-7 66,-2 -2,23 -3,21 -25,24 -7,0 -16,1 -22,2 -4,1 -7,1 -11,2 -7,3 -5,2 -9,5 3,38 28,0 67,11 -3,29 -4,20 -66,29zm416 -177c-3,-9 1,-7 -4,-5 0,-3 -1,-6 -1,-8 -10,-22 -9,-17 -22,-30 -1,-7 -1,-13 -2,-20 -4,-26 -20,-22 -38,-21 8,-43 1,-52 -17,-116 -27,-95 -75,-159 -158,-179 -28,-6 -34,-3 -57,-3 -17,-1 -6,-9 -59,-2 -52,8 -104,39 -142,83 -41,48 -57,109 -81,178 -14,40 -14,31 -6,75 -24,2 -49,0 -57,30 -2,10 -4,20 -5,29 -11,10 -13,7 -23,21 -54,76 -56,205 -46,290 13,112 43,208 146,180 109,-30 91,-165 90,-276 -1,-48 -6,-110 -19,-153 -22,-74 -32,-56 -82,-85 1,-1 3,-3 4,-2 1,1 3,-1 4,-1 0,-1 2,-1 3,-2 1,0 3,0 4,-1 13,-4 22,6 16,-43 -6,-38 -12,-31 -1,-65 7,-23 12,-50 25,-60 20,-15 14,3 33,-29 18,-31 22,-35 46,-56 34,-28 49,-42 95,-53 42,-9 68,-9 108,3 49,14 90,50 115,99 26,51 16,-19 42,75 7,26 2,27 -2,56 -7,55 4,21 20,37 -19,21 -40,7 -61,86 -9,33 -23,122 -16,152 -13,37 -6,153 12,179 25,39 82,11 106,-26 47,-71 54,-281 32,-326 0,-2 -1,-3 -2,-5 0,-2 0,-4 0,-6zm3 192c-18,123 -93,126 -86,-18 9,-172 84,-174 90,-80 -10,-19 -14,-42 -34,-11 -12,18 -17,46 -18,73 -2,25 1,59 12,71 18,19 29,-20 36,-35zm-14 -186c-16,-17 -40,-12 -53,8 -46,71 -2,212 -77,199 -5,-21 -3,-17 0,-23 1,11 1,17 16,13 26,-5 23,-42 26,-76 5,-66 18,-81 23,-107 -18,4 -26,5 -35,-8 5,-22 18,-35 36,-44 4,15 -3,25 19,24 17,-2 21,-13 28,-17 5,11 9,12 15,25 1,0 3,0 4,0 0,2 -1,4 -2,6zm-687 216c-11,153 45,144 57,76 -17,34 -36,27 -47,-2 -8,-21 -9,-48 -10,-74zm21 -147c127,-89 114,167 127,197 6,13 16,17 35,14 22,-4 23,-13 27,-36 -12,18 -16,25 -43,23 -21,-23 -14,-62 -20,-103 -6,-44 -19,-63 -26,-95 27,0 34,1 49,-19 -5,-25 -27,-37 -49,-43 -6,20 3,30 -29,33 -21,3 -28,-5 -34,-8 -1,0 -2,-1 -3,-2 -1,-1 -3,-1 -5,-2 -9,15 -21,22 -29,41zm-32 123c11,-20 9,-22 24,-39 50,-7 63,72 57,127 -3,28 -12,58 -29,69 -28,18 -39,-16 -49,-32 25,145 138,106 133,-65 -6,-197 -120,-191 -136,-60zm-351 144c-174,100 -57,298 83,206 121,-80 61,-290 -83,-206zm22 -577c126,0 243,-1 352,-2 17,-49 11,-78 9,-131 -81,-2 -167,-5 -257,-8 -96,-4 -197,-7 -304,-11 0,202 -10,153 200,152zm-54 104c-250,100 -133,475 132,361 211,-90 120,-462 -132,-361z"/>
  <path class="fil4" d="M1887 1041l28 -3c2,10 6,16 11,21 5,4 12,7 21,7 9,0 16,-2 21,-6 4,-4 7,-9 7,-14 0,-4 -1,-6 -3,-9 -2,-2 -6,-4 -11,-6 -3,-1 -11,-3 -23,-6 -15,-4 -26,-9 -32,-15 -9,-7 -13,-17 -13,-28 0,-8 2,-15 6,-21 4,-6 10,-11 18,-15 7,-3 17,-5 28,-5 18,0 31,4 40,12 9,8 14,19 14,32l-29 1c-1,-7 -3,-12 -7,-16 -4,-3 -11,-5 -19,-5 -8,0 -15,2 -19,6 -3,2 -5,5 -5,9 0,3 2,6 5,8 3,3 12,7 26,10 14,3 24,7 31,10 7,4 12,9 16,15 4,6 6,14 6,23 0,8 -3,16 -7,23 -5,7 -11,12 -19,16 -9,3 -19,5 -32,5 -18,0 -32,-4 -41,-13 -10,-8 -16,-20 -18,-36z"/>
  <path id="1" class="fil4" d="M2028 969l0 -25 28 0 0 25 -28 0zm0 118l0 -104 28 0 0 104 -28 0z"/>
  <path id="2" class="fil4" d="M2104 1016l-25 -5c3,-10 8,-18 15,-22 7,-5 17,-8 30,-8 13,0 22,2 28,5 6,3 10,6 12,11 3,4 4,12 4,24l0 32c0,9 0,16 1,20 1,5 2,9 5,14l-27 0c-1,-1 -2,-4 -3,-8 0,-1 -1,-2 -1,-3 -5,5 -10,8 -15,11 -5,2 -11,3 -17,3 -11,0 -19,-3 -25,-9 -6,-5 -9,-13 -9,-22 0,-6 1,-11 4,-15 3,-5 6,-8 12,-11 5,-2 12,-4 21,-6 13,-3 22,-5 27,-7l0 -3c0,-5 -1,-9 -4,-11 -3,-3 -7,-4 -15,-4 -5,0 -8,1 -11,3 -3,2 -5,6 -7,11zm37 22c-4,1 -9,2 -17,4 -7,2 -12,3 -15,5 -3,2 -5,5 -5,9 0,4 1,8 4,10 3,3 7,5 11,5 5,0 10,-2 14,-5 4,-3 6,-6 7,-9 1,-3 1,-7 1,-14l0 -5z"/>
  <path id="3" class="fil4" d="M2221 1087l-27 0 0 -104 25 0 0 15c5,-7 9,-11 12,-13 4,-3 8,-4 12,-4 6,0 12,2 18,5l-8 24c-5,-3 -9,-4 -13,-4 -4,0 -7,1 -10,3 -3,2 -5,6 -6,12 -2,5 -3,17 -3,34l0 32z"/>
  <path id="4" class="fil4" d="M2293 1016l-24 -5c2,-10 7,-18 14,-22 7,-5 17,-8 31,-8 12,0 21,2 27,5 6,3 10,6 13,11 2,4 3,12 3,24l0 32c0,9 0,16 1,20 1,5 3,9 5,14l-27 0c-1,-1 -2,-4 -3,-8 0,-1 -1,-2 -1,-3 -4,5 -9,8 -15,11 -5,2 -11,3 -17,3 -10,0 -19,-3 -25,-9 -6,-5 -9,-13 -9,-22 0,-6 1,-11 4,-15 3,-5 7,-8 12,-11 5,-2 12,-4 22,-6 12,-3 21,-5 26,-7l0 -3c0,-5 -1,-9 -4,-11 -2,-3 -7,-4 -14,-4 -5,0 -9,1 -12,3 -3,2 -5,6 -7,11zm37 22c-3,1 -9,2 -16,4 -8,2 -13,3 -15,5 -4,2 -6,5 -6,9 0,4 2,8 5,10 2,3 6,5 10,5 5,0 10,-2 15,-5 3,-3 5,-6 6,-9 1,-3 1,-7 1,-14l0 -5z"/>
  <path id="5" class="fil4" d="M2479 1087l-28 0 0 -53c0,-11 0,-18 -1,-21 -2,-4 -3,-6 -6,-8 -3,-2 -6,-3 -10,-3 -5,0 -9,2 -13,4 -4,3 -6,6 -8,11 -1,4 -2,12 -2,23l0 47 -27 0 0 -104 25 0 0 16c9,-12 21,-18 35,-18 6,0 11,1 16,4 6,2 9,5 12,8 2,3 4,7 5,11 1,5 2,11 2,19l0 64z"/>
  <path id="6" class="fil4" d="M2562 1087l0 -143 61 0c16,0 27,1 34,4 7,2 12,7 16,14 5,6 7,14 7,22 0,11 -3,20 -10,27 -6,7 -15,11 -28,13 6,4 11,8 15,12 5,5 10,12 17,23l17 28 -34 0 -21 -31c-7,-11 -13,-18 -15,-21 -3,-3 -6,-5 -9,-6 -3,-1 -8,-1 -15,-1l-6 0 0 59 -29 0zm29 -82l22 0c14,0 22,-1 26,-2 3,-1 6,-3 8,-6 2,-3 3,-7 3,-11 0,-5 -1,-9 -4,-12 -3,-3 -6,-4 -11,-5 -2,-1 -9,-1 -21,-1l-23 0 0 37z"/>
  <path id="7" class="fil4" d="M2727 1016l-25 -5c3,-10 8,-18 15,-22 7,-5 17,-8 30,-8 13,0 22,2 28,5 6,3 10,6 12,11 3,4 4,12 4,24l0 32c0,9 0,16 1,20 1,5 2,9 5,14l-27 0c-1,-1 -2,-4 -3,-8 0,-1 -1,-2 -1,-3 -5,5 -10,8 -15,11 -5,2 -11,3 -17,3 -11,0 -19,-3 -25,-9 -6,-5 -9,-13 -9,-22 0,-6 1,-11 4,-15 3,-5 7,-8 12,-11 5,-2 12,-4 21,-6 13,-3 22,-5 27,-7l0 -3c0,-5 -1,-9 -4,-11 -2,-3 -7,-4 -15,-4 -5,0 -8,1 -11,3 -3,2 -5,6 -7,11zm37 22c-3,1 -9,2 -17,4 -7,2 -12,3 -15,5 -3,2 -5,5 -5,9 0,4 1,8 4,10 3,3 7,5 11,5 5,0 10,-2 14,-5 4,-3 6,-6 7,-9 1,-3 1,-7 1,-14l0 -5z"/>
  <path id="8" class="fil4" d="M2913 1087l-25 0 0 -15c-4,6 -9,11 -15,14 -6,2 -12,4 -18,4 -11,0 -22,-5 -30,-14 -9,-10 -13,-24 -13,-41 0,-17 4,-31 12,-40 9,-9 19,-14 32,-14 11,0 22,5 30,15l0 -52 27 0 0 143zm-73 -54c0,12 2,20 5,25 4,7 10,10 18,10 7,0 12,-2 16,-8 5,-5 7,-13 7,-24 0,-12 -2,-21 -6,-26 -5,-5 -10,-8 -17,-8 -6,0 -12,3 -16,8 -5,5 -7,13 -7,23z"/>
  <path id="9" class="fil4" d="M2940 969l0 -25 28 0 0 25 -28 0zm0 118l0 -104 28 0 0 104 -28 0z"/>
  <path id="10" class="fil4" d="M2990 1034c0,-9 2,-18 6,-26 5,-9 11,-15 20,-20 8,-4 17,-7 27,-7 16,0 29,5 39,16 10,10 15,23 15,38 0,16 -5,29 -15,39 -11,11 -23,16 -39,16 -9,0 -18,-2 -27,-6 -9,-5 -15,-11 -20,-19 -4,-9 -6,-19 -6,-31zm28 2c0,10 2,18 7,23 5,6 11,9 18,9 7,0 13,-3 18,-9 5,-5 8,-13 8,-24 0,-10 -3,-18 -8,-23 -5,-6 -11,-8 -18,-8 -7,0 -13,2 -18,8 -5,5 -7,13 -7,24z"/>
  <polygon id="11" class="fil4" points="1790,1276 1790,1133 1819,1133 1819,1251 1891,1251 1891,1276 "/>
  <path id="12" class="fil4" d="M1911 1158l0 -26 28 0 0 26 -28 0zm0 118l0 -104 28 0 0 104 -28 0z"/>
  <path id="13" class="fil4" d="M1995 1276l-42 -104 29 0 20 53 6 17c1,-4 2,-7 2,-9 1,-2 2,-5 3,-8l20 -53 28 0 -41 104 -25 0z"/>
  <path id="14" class="fil4" d="M2138 1243l28 4c-4,10 -9,18 -17,23 -8,6 -17,8 -29,8 -18,0 -31,-6 -40,-18 -6,-9 -10,-21 -10,-35 0,-18 5,-31 14,-41 9,-10 20,-15 34,-15 15,0 27,6 36,16 9,10 13,26 13,47l-69 0c1,8 3,14 7,19 4,4 9,7 16,7 4,0 8,-2 11,-4 2,-2 5,-6 6,-11zm2 -28c0,-8 -2,-14 -6,-18 -4,-4 -9,-7 -15,-7 -6,0 -11,3 -14,7 -4,4 -6,10 -6,18l41 0z"/>
  <path id="15" class="fil4" d="M2238 1229l28 -3c2,10 5,17 10,21 5,5 12,7 21,7 9,0 16,-2 21,-6 5,-4 7,-9 7,-14 0,-3 -1,-6 -3,-9 -2,-2 -5,-4 -10,-6 -4,-1 -11,-3 -23,-6 -16,-4 -27,-9 -33,-14 -9,-8 -13,-18 -13,-29 0,-8 2,-14 6,-21 4,-6 10,-11 18,-14 8,-4 17,-5 28,-5 18,0 32,4 41,12 9,8 14,18 14,31l-29 1c-1,-7 -4,-12 -8,-15 -4,-4 -10,-5 -18,-5 -8,0 -15,1 -20,5 -3,2 -4,5 -4,9 0,3 1,6 4,9 4,3 12,6 27,9 14,3 24,7 31,10 6,4 12,9 15,15 4,6 6,14 6,23 0,8 -2,16 -7,23 -4,7 -11,12 -19,16 -8,3 -19,5 -31,5 -18,0 -32,-4 -42,-12 -10,-9 -15,-21 -17,-37z"/>
  <path id="16" class="fil4" d="M2426 1172l0 21 -19 0 0 43c0,8 0,13 1,14 0,2 1,3 2,4 2,1 3,1 5,1 2,0 6,-1 11,-2l2 21c-6,3 -13,4 -21,4 -5,0 -10,-1 -14,-2 -4,-2 -7,-4 -8,-7 -2,-2 -4,-6 -4,-11 -1,-3 -1,-9 -1,-19l0 -46 -13 0 0 -21 13 0 0 -21 27 -16 0 37 19 0z"/>
  <path id="17" class="fil4" d="M2471 1276l-27 0 0 -104 25 0 0 14c5,-7 9,-11 12,-13 4,-2 8,-4 12,-4 6,0 13,2 18,6l-8 24c-5,-3 -9,-5 -13,-5 -4,0 -7,1 -10,3 -3,2 -5,6 -6,12 -2,5 -3,17 -3,35l0 32z"/>
  <path id="18" class="fil4" d="M2583 1243l28 4c-4,10 -9,18 -17,23 -8,6 -17,8 -28,8 -19,0 -32,-6 -41,-18 -6,-9 -10,-21 -10,-35 0,-18 5,-31 14,-41 9,-10 20,-15 34,-15 15,0 27,6 36,16 9,10 13,26 13,47l-69 0c1,8 3,14 7,19 4,4 10,7 16,7 4,0 8,-2 11,-4 3,-2 5,-6 6,-11zm2 -28c0,-8 -2,-14 -6,-18 -4,-4 -9,-7 -15,-7 -6,0 -10,3 -14,7 -4,4 -6,10 -6,18l41 0z"/>
  <path id="19" class="fil4" d="M2655 1204l-25 -5c3,-10 8,-17 15,-22 6,-5 17,-8 30,-8 12,0 21,2 27,5 6,3 11,6 13,11 3,4 4,12 4,24l-1 32c0,10 1,16 2,21 1,4 2,9 5,14l-28 0c0,-2 -1,-5 -2,-8 -1,-2 -1,-3 -1,-4 -5,5 -10,8 -15,11 -6,2 -11,3 -17,3 -11,0 -19,-3 -25,-9 -7,-5 -10,-13 -10,-22 0,-5 2,-11 5,-15 2,-5 6,-8 11,-11 5,-2 13,-4 22,-6 13,-3 22,-5 27,-7l0 -3c0,-5 -2,-9 -4,-11 -3,-2 -8,-4 -15,-4 -5,0 -9,1 -11,3 -3,2 -5,6 -7,11zm37 22c-4,1 -9,2 -17,4 -8,2 -13,3 -15,5 -3,2 -5,6 -5,10 0,3 1,7 4,10 3,2 7,4 11,4 5,0 10,-2 14,-5 3,-3 6,-6 7,-9 0,-3 1,-7 1,-14l0 -5z"/>
  <path id="20" class="fil4" d="M2744 1172l25 0 0 14c9,-11 20,-17 32,-17 7,0 13,2 18,5 5,2 9,6 12,12 4,-6 9,-10 14,-12 6,-3 11,-5 17,-5 8,0 14,2 20,5 5,3 9,8 12,14 1,4 2,11 2,21l0 67 -27 0 0 -60c0,-10 -1,-17 -3,-20 -2,-4 -6,-6 -12,-6 -3,0 -7,2 -10,4 -4,2 -6,6 -8,10 -1,5 -2,12 -2,22l0 50 -27 0 0 -57c0,-10 -1,-17 -2,-20 -1,-3 -2,-5 -4,-6 -3,-2 -5,-3 -9,-3 -4,0 -8,2 -11,4 -4,2 -6,5 -8,10 -1,4 -2,11 -2,21l0 51 -27 0 0 -104z"/>
  <path id="21" class="fil4" d="M2924 1158l0 -26 27 0 0 26 -27 0zm0 118l0 -104 27 0 0 104 -27 0z"/>
  <path id="22" class="fil4" d="M3074 1276l-27 0 0 -53c0,-12 -1,-19 -2,-22 -1,-3 -3,-6 -6,-8 -3,-2 -6,-3 -10,-3 -4,0 -9,2 -13,4 -3,3 -6,6 -7,11 -2,4 -2,12 -2,24l0 47 -28 0 0 -104 26 0 0 15c9,-12 20,-18 34,-18 6,0 12,2 17,4 5,2 8,5 11,8 3,3 4,7 5,12 1,4 2,10 2,18l0 65z"/>
  <path id="23" class="fil4" d="M3099 1282l32 4c0,4 1,6 3,8 3,2 7,3 13,3 7,0 12,-1 16,-4 2,-1 4,-3 5,-7 1,-2 1,-6 1,-12l1 -15c-9,11 -19,17 -32,17 -14,0 -25,-6 -33,-18 -6,-9 -9,-21 -9,-35 0,-17 4,-31 12,-40 9,-9 19,-14 31,-14 13,0 24,6 32,17l0 -14 26 0 0 93c0,12 -1,21 -3,27 -2,6 -5,11 -9,15 -3,3 -8,6 -14,8 -6,2 -14,3 -23,3 -18,0 -31,-3 -38,-9 -7,-7 -11,-14 -11,-23 0,-1 0,-3 0,-4zm25 -60c0,11 2,19 6,24 4,5 10,7 16,7 7,0 12,-2 17,-8 5,-5 7,-13 7,-23 0,-11 -2,-19 -7,-24 -4,-5 -10,-8 -17,-8 -6,0 -12,3 -16,8 -4,5 -6,13 -6,24z"/>
  <path id="24" class="fil4" d="M1951 1446c7,5 14,9 23,12l-11 20c-4,-1 -8,-3 -13,-5 0,-1 -7,-5 -19,-13 -9,4 -20,6 -31,6 -22,0 -39,-6 -52,-19 -12,-13 -19,-31 -19,-55 0,-23 7,-42 19,-55 13,-13 30,-19 51,-19 21,0 38,6 51,19 12,13 18,32 18,55 0,12 -1,23 -5,33 -2,7 -7,14 -12,21zm-24 -17c4,-4 7,-9 9,-16 2,-6 3,-13 3,-21 0,-17 -4,-29 -11,-37 -8,-8 -17,-12 -29,-12 -12,0 -21,4 -29,12 -7,8 -11,21 -11,37 0,17 4,29 11,38 8,8 17,12 28,12 4,0 8,0 12,-2 -6,-4 -12,-7 -18,-9l8 -17c10,4 19,9 27,15z"/>
  <path id="25" class="fil4" d="M2060 1464l0 -16c-4,6 -9,10 -15,13 -6,4 -13,5 -20,5 -7,0 -13,-1 -19,-4 -5,-3 -9,-8 -12,-13 -2,-6 -3,-13 -3,-23l0 -66 27 0 0 48c0,14 1,23 2,27 1,3 2,6 5,7 3,2 6,3 10,3 5,0 9,-1 13,-4 4,-2 6,-5 8,-9 1,-4 2,-13 2,-28l0 -44 27 0 0 104 -25 0z"/>
  <path id="26" class="fil4" d="M2140 1464l-28 0 0 -104 26 0 0 15c4,-7 8,-12 11,-14 4,-2 8,-3 12,-3 7,0 13,1 18,5l-8 24c-5,-3 -9,-5 -13,-5 -4,0 -7,1 -10,3 -3,3 -5,6 -6,12 -2,5 -2,17 -2,35l0 32z"/>
  <path id="27" class="fil4" d="M2198 1320l27 0 0 20c0,8 0,14 -2,19 -1,4 -4,9 -8,12 -3,4 -8,7 -14,9l-5 -12c5,-1 9,-4 11,-7 3,-3 4,-8 4,-13l-13 0 0 -28z"/>
  <path id="28" class="fil4" d="M2275 1392l-25 -5c3,-10 8,-17 14,-22 7,-5 17,-7 31,-7 12,0 21,1 27,4 6,3 10,7 13,11 2,4 4,13 4,25l-1 32c0,9 1,15 1,20 1,4 3,9 5,14l-27 0c-1,-2 -1,-5 -3,-8 0,-2 0,-3 0,-3 -5,4 -10,8 -15,10 -6,2 -11,3 -18,3 -10,0 -19,-3 -25,-8 -6,-6 -9,-13 -9,-22 0,-6 1,-11 4,-16 3,-5 7,-8 12,-11 5,-2 12,-4 22,-6 13,-2 22,-5 27,-7l0 -2c0,-6 -2,-10 -4,-12 -3,-2 -8,-3 -15,-3 -5,0 -9,1 -12,3 -2,2 -5,5 -6,10zm37 22c-4,1 -10,3 -17,4 -8,2 -13,4 -15,5 -4,3 -6,6 -6,10 0,4 2,7 5,10 3,3 6,4 11,4 5,0 9,-2 14,-5 3,-2 5,-5 6,-9 1,-2 2,-7 2,-13l0 -6z"/>
  <path id="29" class="fil4" d="M2460 1464l-27 0 0 -53c0,-11 -1,-19 -2,-22 -1,-3 -3,-6 -6,-8 -3,-1 -6,-2 -9,-2 -5,0 -10,1 -13,4 -4,2 -7,6 -8,10 -2,4 -2,12 -2,24l0 47 -28 0 0 -104 26 0 0 15c9,-12 20,-17 34,-17 6,0 12,1 17,3 5,2 9,5 11,8 3,4 5,7 6,12 1,4 1,10 1,18l0 65z"/>
  <path id="30" class="fil4" d="M2635 1411l28 8c-4,16 -11,28 -21,36 -10,7 -23,11 -38,11 -19,0 -35,-6 -47,-19 -12,-13 -18,-31 -18,-54 0,-24 6,-42 18,-55 12,-14 29,-20 49,-20 17,0 31,5 42,15 7,7 12,15 15,27l-29 7c-1,-8 -5,-14 -10,-18 -6,-4 -12,-6 -20,-6 -10,0 -19,3 -26,11 -6,8 -10,20 -10,37 0,18 4,31 10,39 7,7 15,11 26,11 7,0 14,-2 19,-7 6,-5 10,-13 12,-23z"/>
  <path id="31" class="fil4" d="M2748 1431l28 5c-4,10 -9,17 -17,22 -8,6 -17,8 -29,8 -18,0 -31,-6 -40,-17 -6,-10 -10,-22 -10,-36 0,-17 5,-31 14,-41 9,-9 20,-14 34,-14 15,0 27,5 36,15 9,10 13,26 13,47l-69 0c1,8 3,14 7,19 4,4 9,7 16,7 4,0 8,-1 11,-4 2,-2 5,-6 6,-11zm2 -28c0,-8 -2,-14 -6,-18 -4,-4 -9,-6 -15,-6 -6,0 -11,2 -14,6 -4,5 -6,11 -6,18l41 0z"/>
  <path id="32" class="fil4" d="M2894 1464l-28 0 0 -53c0,-11 0,-19 -1,-22 -1,-3 -3,-6 -6,-8 -3,-1 -6,-2 -10,-2 -4,0 -9,1 -13,4 -3,2 -6,6 -7,10 -2,4 -3,12 -3,24l0 47 -27 0 0 -104 25 0 0 15c10,-12 21,-17 35,-17 6,0 12,1 17,3 5,2 8,5 11,8 3,4 4,7 5,12 1,4 2,10 2,18l0 65z"/>
  <path id="33" class="fil4" d="M2969 1360l0 22 -19 0 0 42c0,8 1,13 1,15 0,1 1,2 2,3 2,1 3,2 5,2 3,0 6,-1 11,-3l2 21c-6,3 -13,4 -21,4 -5,0 -10,0 -14,-2 -4,-2 -7,-4 -8,-7 -2,-2 -3,-6 -4,-10 -1,-4 -1,-10 -1,-20l0 -45 -13 0 0 -22 13 0 0 -21 27 -16 0 37 19 0z"/>
  <path id="34" class="fil4" d="M3048 1431l28 5c-4,10 -9,17 -17,22 -7,6 -17,8 -28,8 -18,0 -32,-6 -40,-17 -7,-10 -11,-22 -11,-36 0,-17 5,-31 14,-41 9,-9 20,-14 34,-14 15,0 28,5 36,15 9,10 14,26 13,47l-68 0c0,8 2,14 6,19 4,4 10,7 16,7 4,0 8,-1 11,-4 3,-2 5,-6 6,-11zm2 -28c0,-8 -2,-14 -6,-18 -4,-4 -9,-6 -14,-6 -6,0 -11,2 -15,6 -4,5 -6,11 -6,18l41 0z"/>
  <path id="35" class="fil4" d="M3126 1464l-27 0 0 -104 25 0 0 15c4,-7 8,-12 12,-14 3,-2 7,-3 12,-3 6,0 12,1 18,5l-9 24c-4,-3 -9,-5 -13,-5 -4,0 -7,1 -9,3 -3,3 -5,6 -7,12 -1,5 -2,17 -2,35l0 32z"/>
  <polygon id="36" class="fil4" points="1912,1652 1912,1509 1941,1509 1941,1565 1997,1565 1997,1509 2026,1509 2026,1652 1997,1652 1997,1589 1941,1589 1941,1652 "/>
  <path id="37" class="fil4" d="M2056 1534l0 -25 27 0 0 25 -27 0zm0 118l0 -104 27 0 0 104 -27 0z"/>
  <path id="38" class="fil4" d="M2207 1652l-26 0 0 -15c-4,6 -9,10 -15,13 -5,3 -11,5 -17,5 -12,0 -22,-5 -31,-15 -8,-10 -13,-23 -13,-40 0,-18 4,-31 13,-40 8,-10 19,-14 31,-14 12,0 22,5 30,14l0 -51 28 0 0 143zm-73 -54c0,11 1,19 4,24 5,7 11,11 19,11 6,0 11,-3 16,-8 4,-6 6,-14 6,-24 0,-12 -2,-21 -6,-26 -4,-6 -10,-8 -17,-8 -6,0 -11,2 -16,8 -4,5 -6,13 -6,23z"/>
  <path id="39" class="fil4" d="M2254 1580l-25 -4c3,-11 8,-18 15,-23 7,-5 17,-7 30,-7 13,0 22,1 28,4 6,3 10,7 12,11 3,5 4,13 4,25l0 32c0,9 0,16 1,20 1,4 2,9 5,14l-27 0c-1,-2 -2,-5 -3,-8 0,-2 -1,-3 -1,-3 -5,4 -10,8 -15,10 -5,2 -11,4 -17,4 -11,0 -19,-3 -25,-9 -6,-6 -9,-13 -9,-22 0,-6 1,-11 4,-16 3,-4 6,-8 12,-10 5,-3 12,-5 21,-7 13,-2 22,-4 27,-7l0 -2c0,-6 -1,-9 -4,-12 -2,-2 -7,-3 -15,-3 -5,0 -8,1 -11,3 -3,2 -5,5 -7,10zm37 22c-3,1 -9,3 -17,4 -7,2 -12,4 -15,5 -3,3 -5,6 -5,10 0,4 1,7 4,10 3,3 7,4 11,4 5,0 10,-2 14,-5 4,-2 6,-5 7,-9 1,-2 1,-7 1,-13l0 -6z"/>
  <path id="40" class="fil4" d="M2332 1548l29 0 25 74 24 -74 29 0 -37 100 -6 18c-3,6 -5,11 -7,14 -3,3 -5,6 -8,8 -3,2 -6,3 -10,4 -5,1 -9,2 -14,2 -6,0 -11,-1 -16,-2l-2 -21c4,1 8,1 11,1 7,0 11,-2 14,-6 3,-3 6,-8 7,-14l-39 -104z"/>
  <path id="41" class="fil4" d="M2477 1580l-25 -4c3,-11 8,-18 15,-23 6,-5 17,-7 30,-7 12,0 21,1 27,4 6,3 11,7 13,11 3,5 4,13 4,25l-1 32c0,9 1,16 2,20 1,4 2,9 5,14l-28 0c0,-2 -1,-5 -2,-8 -1,-2 -1,-3 -1,-3 -5,4 -10,8 -15,10 -6,2 -11,4 -17,4 -11,0 -19,-3 -26,-9 -6,-6 -9,-13 -9,-22 0,-6 2,-11 4,-16 3,-4 7,-8 12,-10 5,-3 13,-5 22,-7 13,-2 22,-4 27,-7l0 -2c0,-6 -2,-9 -4,-12 -3,-2 -8,-3 -15,-3 -5,0 -9,1 -11,3 -3,2 -5,5 -7,10zm37 22c-4,1 -9,3 -17,4 -8,2 -13,4 -15,5 -4,3 -5,6 -5,10 0,4 1,7 4,10 3,3 6,4 11,4 5,0 10,-2 14,-5 3,-2 6,-5 7,-9 0,-2 1,-7 1,-13l0 -6z"/>
  <path id="42" class="fil4" d="M2615 1548l0 22 -19 0 0 42c0,8 1,13 1,15 0,1 1,2 2,3 2,1 3,2 5,2 3,0 6,-1 11,-3l2 21c-6,3 -13,5 -21,5 -5,0 -10,-1 -14,-3 -4,-2 -6,-4 -8,-6 -2,-3 -3,-7 -4,-11 -1,-3 -1,-10 -1,-20l0 -45 -13 0 0 -22 13 0 0 -21 27 -16 0 37 19 0z"/>
  <path id="43" class="fil4" d="M2703 1652l0 -16c-4,6 -9,10 -15,14 -6,3 -12,5 -19,5 -7,0 -14,-2 -19,-5 -6,-3 -10,-7 -12,-13 -3,-6 -4,-13 -4,-23l0 -66 27 0 0 48c0,15 1,23 2,27 1,3 3,6 6,8 2,2 6,2 10,2 4,0 9,-1 12,-3 4,-3 7,-6 8,-10 1,-4 2,-13 2,-28l0 -44 28 0 0 104 -26 0z"/>
  <polygon id="44" class="fil4" points="2757,1652 2757,1509 2784,1509 2784,1652 "/>
  <polygon id="45" class="fil4" points="2812,1652 2812,1509 2840,1509 2840,1652 "/>
  <path id="46" class="fil4" d="M2888 1580l-24 -4c2,-11 7,-18 14,-23 7,-5 17,-7 31,-7 12,0 21,1 27,4 6,3 10,7 13,11 2,5 3,13 3,25l0 32c0,9 0,16 1,20 1,4 3,9 5,14l-27 0c-1,-2 -2,-5 -3,-8 0,-2 -1,-3 -1,-3 -4,4 -9,8 -15,10 -5,2 -11,4 -17,4 -10,0 -19,-3 -25,-9 -6,-6 -9,-13 -9,-22 0,-6 1,-11 4,-16 3,-4 7,-8 12,-10 5,-3 12,-5 22,-7 12,-2 21,-4 26,-7l0 -2c0,-6 -1,-9 -4,-12 -2,-2 -7,-3 -14,-3 -5,0 -9,1 -12,3 -3,2 -5,5 -7,10zm37 22c-3,1 -9,3 -16,4 -8,2 -13,4 -15,5 -4,3 -6,6 -6,10 0,4 2,7 5,10 2,3 6,4 10,4 5,0 10,-2 15,-5 3,-2 5,-5 6,-9 1,-2 1,-7 1,-13l0 -6z"/>
  <path id="47" class="fil4" d="M3006 1509l0 53c9,-11 20,-16 32,-16 7,0 12,1 18,3 5,3 8,6 11,9 3,4 4,8 5,12 1,5 2,12 2,21l0 61 -28 0 0 -55c0,-11 0,-18 -1,-21 -1,-3 -3,-5 -6,-7 -2,-1 -6,-2 -10,-2 -4,0 -9,1 -12,3 -4,2 -6,6 -8,10 -2,5 -3,11 -3,20l0 52 -27 0 0 -143 27 0z"/>
 </g>
</svg>
