<?xml version="1.0" encoding="UTF-8"?>
<!DOCTYPE svg PUBLIC "-//W3C//DTD SVG 1.1//EN" "http://www.w3.org/Graphics/SVG/1.1/DTD/svg11.dtd">
<!-- Creator: CorelDRAW X7 -->
<svg xmlns="http://www.w3.org/2000/svg" xml:space="preserve" width="122.061mm" height="88.4048mm" version="1.1" style="shape-rendering:geometricPrecision; text-rendering:geometricPrecision; image-rendering:optimizeQuality; fill-rule:evenodd; clip-rule:evenodd"
viewBox="0 0 2212 1602"
 xmlns:xlink="http://www.w3.org/1999/xlink">
 <defs>
  <style type="text/css">
   <![CDATA[
    .fil2 {fill:none}
    .fil4 {fill:#FEFEFE}
    .fil0 {fill:#ACCE22}
    .fil3 {fill:#078F5B;fill-rule:nonzero}
    .fil1 {fill:#078F5B}
   ]]>
  </style>
   <clipPath id="id0">
    <path d="M181 0l1849 0c100,0 182,82 182,181l0 1240c0,99 -82,181 -182,181l-1849 0c-99,0 -181,-82 -181,-181l0 -1240c0,-99 82,-181 181,-181z"/>
   </clipPath>
 </defs>
 <g id="Layer_x0020_1">
  <metadata id="CorelCorpID_0Corel-Layer"/>
  <path class="fil0" d="M181 0l1849 0c100,0 182,82 182,181l0 1240c0,99 -82,181 -182,181l-1849 0c-99,0 -181,-82 -181,-181l0 -1240c0,-99 82,-181 181,-181z"/>
  <g style="clip-path:url(#id0)">
   <g id="_618956656">
    <path id="1" class="fil1" d="M820 2431c144,44 357,21 502,-73 63,-33 122,-95 167,-111l123 121c203,232 591,-263 535,-398 -42,-103 -625,-616 -693,-721 -149,72 -239,354 -548,310 -131,-19 -209,-102 -270,-162 -65,-64 -150,-141 -204,-207 -92,-90 -177,-168 -261,-259 -33,-35 -81,-96 -102,-160 -57,-173 10,-307 129,-429 47,-49 139,-122 168,-185 -259,-248 -375,-376 -516,-499 -51,26 -144,133 -194,181 -412,400 -752,868 -241,1375 358,355 985,1112 1405,1217z"/>
   </g>
  </g>
  <path class="fil2" d="M181 0l1849 0c100,0 182,82 182,181l0 1240c0,99 -82,181 -182,181l-1849 0c-99,0 -181,-82 -181,-181l0 -1240c0,-99 82,-181 181,-181z"/>
  <path class="fil3" d="M373 425l0 -29 20 0c12,0 17,6 17,14 0,9 -5,15 -17,15l-20 0zm0 53l0 -36 23 0c20,0 32,-13 32,-31 0,-18 -12,-33 -32,-33l-44 0 0 100 21 0z"/>
  <path id="1" class="fil3" d="M469 464c-11,0 -17,-8 -17,-23 0,-15 6,-22 17,-22 12,0 18,7 18,22 0,15 -6,23 -18,23zm0 16c24,0 38,-15 38,-39 0,-23 -14,-39 -38,-39 -23,0 -38,16 -38,39 0,23 15,39 38,39z"/>
  <path id="2" class="fil3" d="M549 464c-9,0 -16,-9 -16,-22 0,-15 5,-23 17,-23 10,0 16,8 16,24 0,13 -7,21 -17,21zm35 14l0 -101 -19 0 0 37c-5,-8 -13,-12 -22,-12 -19,0 -30,16 -30,38 0,25 13,40 32,40 9,0 16,-3 20,-11l1 9 18 0z"/>
  <path id="3" class="fil3" d="M640 451c-1,8 -7,13 -14,13 -8,0 -15,-8 -15,-24 0,-16 7,-22 15,-22 8,0 13,5 14,13l20 0c-1,-18 -14,-29 -34,-29 -20,0 -34,12 -34,38 0,27 14,40 34,40 18,0 32,-11 34,-29l-20 0z"/>
  <path id="4" class="fil3" d="M710 450c0,9 -7,16 -17,16 -6,0 -10,-2 -10,-8 0,-6 4,-10 15,-12 7,-1 11,-2 13,-4l-1 8zm20 28l0 -47c0,-18 -8,-29 -31,-29 -24,0 -33,11 -33,26l18 0c1,-6 5,-11 14,-11 7,0 12,3 12,8 0,5 -3,7 -12,8 -20,3 -34,6 -34,27 0,12 7,20 24,20 10,0 18,-3 23,-8 0,2 0,5 1,6l18 0z"/>
  <path id="5" class="fil3" d="M802 427c-1,-16 -10,-25 -32,-25 -22,0 -31,10 -31,22 0,7 2,13 9,17 6,3 13,5 25,8 6,2 12,4 12,9 0,5 -6,7 -13,7 -10,0 -16,-4 -16,-11l-20 0c1,16 13,26 36,26 21,0 32,-9 32,-24 0,-10 -4,-15 -12,-18 -6,-2 -14,-4 -22,-7 -8,-2 -12,-4 -12,-8 0,-4 4,-6 12,-6 8,0 12,2 13,10l19 0z"/>
  <path id="6" class="fil3" d="M851 449c0,9 -4,14 -11,14 -8,0 -12,-5 -12,-15l0 -30 41 0 0 -14 -41 0 0 -20 -19 0 0 66c0,16 9,30 30,30 21,0 30,-14 30,-29l0 -22 -18 0 0 20z"/>
  <polygon id="7" class="fil3" points="455,604 455,585 406,585 406,503 385,503 385,604 "/>
  <path id="8" class="fil3" d="M481 604l0 -75 -20 0 0 75 20 0zm0 -83l0 -19 -20 0 0 19 20 0z"/>
  <polygon id="9" class="fil3" points="533,604 560,529 539,529 523,578 508,529 486,529 513,604 "/>
  <path id="10" class="fil3" d="M578 559c1,-10 8,-16 15,-16 8,0 15,5 16,16l-31 0zm51 13c0,-30 -12,-45 -35,-45 -23,0 -36,15 -36,38 0,27 13,41 37,41 16,0 28,-9 33,-24l-20 0c-2,5 -7,8 -14,8 -9,0 -16,-7 -16,-18l51 0z"/>
  <polygon id="11" class="fil3" points="720,604 720,521 750,521 750,503 669,503 669,521 699,521 699,604 "/>
  <polygon id="12" class="fil3" points="806,604 840,503 818,503 796,574 774,503 752,503 786,604 "/>
  <path id="13" class="fil3" d="M271 731c0,10 -4,15 -10,15 -6,0 -11,-5 -11,-17 24,-3 38,-25 38,-49 0,-34 -17,-55 -48,-55 -31,0 -48,21 -48,55 0,30 14,47 39,51l0 3c0,18 12,30 28,30 18,0 31,-14 31,-33l-19 0zm-31 -17c-18,0 -28,-10 -28,-34 0,-24 10,-36 28,-36 17,0 27,12 27,36 0,24 -12,34 -27,34z"/>
  <path id="14" class="fil3" d="M361 729l0 -74 -19 0 0 42c0,10 -5,17 -15,17 -9,0 -13,-4 -13,-14l0 -45 -19 0 0 48c0,17 10,28 25,28 10,0 18,-4 23,-13l0 11 18 0z"/>
  <path id="15" class="fil3" d="M389 729l0 -39c0,-12 6,-18 18,-18 2,0 4,0 6,1l0 -20 -3 0c-8,0 -15,1 -22,11l0 -9 -18 0 0 74 19 0z"/>
  <path id="16" class="fil3" d="M460 701c-1,8 -8,16 -18,16 -6,0 -10,-3 -10,-9 0,-6 4,-9 15,-11 7,-2 11,-3 13,-5l0 9zm19 28l0 -47c0,-19 -8,-29 -31,-29 -24,0 -33,10 -33,26l18 0c1,-7 5,-11 14,-11 7,0 12,3 12,7 0,6 -2,8 -12,9 -20,3 -34,5 -34,26 0,12 8,21 24,21 10,0 18,-4 23,-9 0,2 0,5 1,7l18 0z"/>
  <path id="17" class="fil3" d="M555 729l0 -52c0,-16 -10,-24 -24,-24 -12,0 -20,4 -24,12l0 -10 -19 0 0 74 19 0 0 -43c0,-11 5,-17 16,-17 9,0 12,3 12,15l0 45 20 0z"/>
  <path id="18" class="fil3" d="M667 694c-3,13 -11,20 -23,20 -16,0 -24,-13 -24,-35 0,-22 8,-36 25,-36 10,0 19,7 22,19l21 0c-2,-21 -18,-37 -43,-37 -29,0 -47,21 -47,55 0,34 20,52 47,52 23,0 38,-15 43,-38l-21 0z"/>
  <path id="19" class="fil3" d="M711 684c1,-10 7,-16 15,-16 8,0 15,5 15,16l-30 0zm50 13c0,-30 -12,-44 -34,-44 -23,0 -36,14 -36,37 0,27 12,41 37,41 16,0 28,-9 32,-24l-20 0c-1,5 -7,8 -13,8 -10,0 -16,-7 -17,-18l51 0z"/>
  <path id="20" class="fil3" d="M835 729l0 -52c0,-16 -10,-24 -24,-24 -12,0 -20,4 -24,12l0 -10 -19 0 0 74 20 0 0 -43c0,-11 5,-17 15,-17 9,0 13,3 13,15l0 45 19 0z"/>
  <path id="21" class="fil3" d="M886 699c0,9 -4,15 -11,15 -8,0 -12,-6 -12,-15l0 -31 41 0 0 -13 -41 0 0 -20 -19 0 0 66c0,16 9,30 30,30 21,0 30,-14 30,-30l0 -21 -18 0 0 19z"/>
  <path id="22" class="fil3" d="M931 684c1,-10 7,-16 15,-16 8,0 15,5 15,16l-30 0zm50 13c0,-30 -12,-44 -35,-44 -22,0 -35,14 -35,37 0,27 12,41 37,41 16,0 28,-9 32,-24l-20 0c-1,5 -7,8 -13,8 -10,0 -16,-7 -17,-18l51 0z"/>
  <path id="23" class="fil3" d="M1008 729l0 -39c0,-12 6,-18 18,-18 1,0 3,0 5,1l0 -20 -3 0c-8,0 -15,1 -22,11l0 -9 -18 0 0 74 20 0z"/>
  <polygon id="24" class="fil3" points="312,854 312,754 291,754 291,792 252,792 252,754 231,754 231,854 252,854 252,809 291,809 291,854 "/>
  <path id="25" class="fil3" d="M340 854l0 -74 -20 0 0 74 20 0zm0 -83l0 -18 -20 0 0 18 20 0z"/>
  <path id="26" class="fil3" d="M384 840c-10,0 -17,-9 -17,-22 0,-16 6,-23 17,-23 11,0 17,8 17,24 0,12 -8,21 -17,21zm35 14l0 -101 -19 0 0 37c-6,-8 -13,-12 -22,-12 -19,0 -31,16 -31,38 0,25 14,40 33,40 9,0 15,-3 20,-11l0 9 19 0z"/>
  <path id="27" class="fil3" d="M473 826c0,9 -8,16 -18,16 -6,0 -10,-3 -10,-8 0,-7 4,-10 15,-12 7,-1 11,-2 13,-4l0 8zm19 28l0 -47c0,-19 -8,-29 -31,-29 -24,0 -33,11 -33,26l18 0c1,-7 5,-11 14,-11 8,0 12,3 12,8 0,5 -2,7 -12,8 -20,3 -34,5 -34,27 0,12 8,20 25,20 9,0 17,-3 22,-9 0,3 1,5 1,7l18 0z"/>
  <path id="28" class="fil3" d="M548 856c0,10 -6,16 -13,16 -11,0 -16,-5 -16,-14l-18 0c0,19 11,31 33,31 19,0 34,-12 34,-33l0 -76 -20 0 0 45c0,8 -6,14 -15,14 -8,0 -12,-5 -12,-14l0 -45 -20 0 0 48c0,16 12,27 27,27 9,0 17,-4 20,-11l0 12z"/>
  <path id="29" class="fil3" d="M622 826c-1,9 -8,16 -18,16 -6,0 -10,-3 -10,-8 0,-7 4,-10 15,-12 7,-1 11,-2 13,-4l0 8zm19 28l0 -47c0,-19 -8,-29 -31,-29 -24,0 -33,11 -33,26l18 0c1,-7 5,-11 14,-11 7,0 12,3 12,8 0,5 -2,7 -12,8 -20,3 -34,5 -34,27 0,12 8,20 24,20 10,0 18,-3 23,-9 0,3 0,5 1,7l18 0z"/>
  <path id="30" class="fil3" d="M692 824c0,10 -4,15 -12,15 -8,0 -11,-5 -11,-15l0 -30 41 0 0 -14 -41 0 0 -20 -19 0 0 66c0,16 8,30 30,30 21,0 30,-14 30,-30l0 -21 -18 0 0 19z"/>
  <path id="31" class="fil3" d="M785 854l0 -74 -20 0 0 43c0,9 -5,17 -15,17 -8,0 -12,-5 -12,-14l0 -46 -20 0 0 49c0,16 11,27 25,27 11,0 18,-4 23,-12l0 10 19 0z"/>
  <polygon id="32" class="fil3" points="813,854 813,753 794,753 794,854 "/>
  <polygon id="33" class="fil3" points="841,854 841,753 821,753 821,854 "/>
  <path id="34" class="fil3" d="M894 826c0,9 -8,16 -18,16 -6,0 -9,-3 -9,-8 0,-7 4,-10 15,-12 7,-1 10,-2 12,-4l0 8zm20 28l0 -47c0,-19 -8,-29 -32,-29 -24,0 -32,11 -32,26l18 0c1,-7 4,-11 13,-11 8,0 13,3 13,8 0,5 -3,7 -13,8 -19,3 -34,5 -34,27 0,12 8,20 25,20 10,0 18,-3 22,-9 1,3 1,5 2,7l18 0z"/>
  <path id="35" class="fil3" d="M990 854l0 -52c0,-15 -11,-24 -26,-24 -10,0 -19,5 -22,12l0 -37 -19 0 0 101 19 0 0 -42c0,-10 6,-19 15,-19 9,0 13,4 13,15l0 46 20 0z"/>
  <g id="_618958264">
   <path class="fil4" d="M1648 559c-119,-2 -286,-40 -329,24 -34,49 -26,96 -26,163 0,105 -13,502 17,545 33,46 75,42 137,28l281 -63 -41 -97 -232 42c-42,7 -51,20 -51,-27l0 -166c0,-55 0,-110 0,-165 0,-219 -36,-181 143,-178l206 3 42 -98c-20,-1 -38,-3 -51,-7l-6 -24 55 -71c8,-12 16,-23 25,-34l29 -37c16,-13 28,0 42,-16 26,-30 -11,-76 -45,-51 -17,12 -13,31 -12,54 -18,11 -91,120 -110,139 -16,-4 -27,-5 -45,-3l-133 -184c-36,-47 -9,-24 -23,-80 -54,-28 -87,23 -56,53 23,21 27,-6 49,24 5,7 8,13 15,22l63 88c7,10 11,14 18,23 12,16 21,30 33,46 18,24 20,21 5,47zm135 684l198 -44c97,-20 83,-111 82,-205 0,-59 4,-327 -10,-363 -23,-62 -65,-49 -134,-55 -18,-1 -41,-2 -65,-3l-40 96 128 2c34,1 54,-8 56,24 7,104 3,292 -1,406 -37,12 -110,22 -154,29l-100 18 40 95z"/>
   <path class="fil4" d="M1331 1354c-59,-54 -69,-63 -69,-157l0 -451c0,-113 -8,-107 37,-189 -73,12 -116,66 -116,148 -1,75 -5,484 2,528 9,69 70,115 146,121z"/>
   <path class="fil4" d="M1704 1007c-8,-2 -15,-3 -22,-5 -5,-3 -55,-14 -66,-17 -30,-8 -43,-7 -44,-45 -1,-30 -2,-60 -3,-90 -1,-30 -2,-61 -3,-92 0,0 -40,-27 -52,6 -6,13 -1,56 0,74 1,25 2,50 3,75 1,24 2,49 3,74 1,26 17,26 40,31 26,5 52,10 78,16 25,5 49,10 73,15 7,1 11,4 13,-2 10,-2 42,-17 74,-32 33,-16 66,-32 77,-38 8,-4 14,-6 17,-14 0,0 0,-1 0,-1 1,1 3,-4 4,-12 -1,-31 -1,-62 -1,-93 0,-31 0,-63 0,-95 -1,-10 -6,-18 -15,-20 -9,-1 -19,6 -26,9 -2,22 -1,57 0,91 1,34 2,67 0,86 -1,10 -4,11 -7,19 -6,4 -6,6 -13,9 -15,7 -31,15 -46,22 -21,9 -45,21 -65,32l0 1c-5,-2 -11,-5 -19,-4zm15 -238c1,75 3,151 4,227 3,0 25,-11 48,-22 22,-11 46,-22 54,-26 14,-6 20,-13 20,-29 -1,-27 -1,-54 -1,-80 0,-27 0,-55 0,-82 0,-44 -31,-26 -55,-16 -24,10 -45,18 -70,28z"/>
   <path class="fil4" d="M1579 761c1,31 2,61 3,92 1,30 2,60 2,90 1,28 25,27 68,38 14,4 25,8 40,11 40,8 32,22 30,-69 0,-19 0,-49 -1,-78 0,-30 -1,-59 -2,-76 -13,-4 -24,-8 -37,-13 -50,-16 -105,-49 -103,5z"/>
   <path class="fil0" d="M1678 945c13,4 47,-28 62,-40 12,-10 52,-39 57,-49 -5,-10 -69,-47 -86,-58 -10,-6 -20,-18 -33,-13l0 160z"/>
   <path class="fil4" d="M1103 852c0,86 -10,172 27,242 7,12 14,18 19,27 4,-115 3,-288 1,-410 -33,44 -47,78 -47,141z"/>
   <rect class="fil4" transform="matrix(-0.508142 -0 0.306334 0.719274 1669.15 1107.2)" width="120" height="321"/>
  </g>
 </g>
</svg>
