<svg width="1998" height="1261" viewBox="0 0 1998 1261" fill="none" xmlns="http://www.w3.org/2000/svg">
<rect width="1998" height="1261" fill="#0C6B47"/>
<path d="M461.883 552.316C473.075 562.111 482.262 572.188 502.802 591.939C500.515 596.917 493.254 602.698 489.483 606.552C480.056 616.268 474.76 626.907 479.253 640.596C480.898 645.695 484.749 650.513 487.357 653.283C494.016 660.509 500.756 666.771 508.017 673.876C512.35 679.135 519.048 685.158 524.183 690.256C529.037 695.074 535.216 701.617 545.606 703.143C570.117 706.635 577.298 684.235 589.092 678.534C594.468 686.845 640.682 727.592 644.051 735.782C648.463 746.502 617.694 785.722 601.608 767.336L591.86 757.741C588.25 759.026 583.596 763.883 578.621 766.493C567.148 773.96 550.259 775.767 538.786 772.314C505.489 764.004 455.785 703.946 427.423 675.804C386.865 635.498 413.864 598.363 446.558 566.688C450.49 562.874 457.871 554.403 461.883 552.316Z" fill="#078F5B"/>
<path d="M1067.26 672.463V709.465C1067.26 716.924 1070.77 720.727 1077.49 720.727C1084.8 720.727 1089.77 715.9 1089.77 709.465V672.463H1105.86V734.621C1105.86 751.879 1093.58 761.825 1077.93 761.825C1060.24 761.825 1051.18 752.025 1051.18 736.376H1066.09C1066.09 743.543 1070.33 747.93 1078.66 747.93C1084.51 747.93 1089.77 742.958 1089.77 734.914V725.114C1087.58 730.526 1081 733.743 1073.4 733.743C1060.68 733.743 1051.18 725.114 1051.18 711.805V672.463H1067.26Z" fill="#078F5B"/>
<path fill-rule="evenodd" clip-rule="evenodd" d="M984.362 650.232V733.012H968.864V725.699C964.917 731.842 959.361 734.621 951.905 734.621C936.699 734.621 925.734 722.628 925.734 702.152C925.734 683.724 934.945 670.854 950.589 670.854C958.045 670.854 964.039 673.925 968.571 680.36V650.232H984.362ZM955.706 684.456C946.349 684.456 941.963 690.744 941.963 703.176C941.963 714.145 947.665 721.604 955.56 721.604C963.308 721.604 969.156 714.438 969.156 704.2C969.156 691.037 964.624 684.456 955.706 684.456Z" fill="#078F5B"/>
<path fill-rule="evenodd" clip-rule="evenodd" d="M1018.28 670.854C1037.58 670.854 1044.16 679.483 1044.16 694.693V733.012H1029.25C1028.81 731.549 1028.52 729.502 1028.37 727.6C1024.57 731.842 1018.13 734.621 1009.95 734.621C996.204 734.621 989.771 727.893 989.771 718.094C989.771 700.543 1001.47 698.496 1017.55 696.302C1025.59 695.278 1027.78 693.669 1027.78 689.428C1027.78 685.479 1023.84 683.139 1017.55 683.139C1010.39 683.139 1007.32 686.649 1006.58 692.207H991.671C991.964 679.629 998.836 670.854 1018.28 670.854ZM1028.22 703.322C1026.61 704.931 1023.69 705.809 1017.84 706.979C1008.78 708.734 1005.71 711.221 1005.71 716.486C1005.71 721.019 1008.49 723.213 1013.6 723.213C1021.79 723.213 1027.93 717.216 1028.08 710.05L1028.22 703.322Z" fill="#078F5B"/>
<path fill-rule="evenodd" clip-rule="evenodd" d="M1140.07 670.854C1159.37 670.854 1165.95 679.483 1165.95 694.693V733.012H1151.03C1150.6 731.549 1150.16 729.502 1150.01 727.6C1146.21 731.842 1139.78 734.621 1131.73 734.621C1117.85 734.621 1111.56 727.893 1111.56 718.094C1111.56 700.544 1123.25 698.496 1139.34 696.302C1147.38 695.278 1149.57 693.669 1149.57 689.428C1149.57 685.479 1145.62 683.139 1139.34 683.139C1132.03 683.139 1129.1 686.649 1128.37 692.207H1113.46C1113.75 679.629 1120.62 670.854 1140.07 670.854ZM1150.01 703.322C1148.4 704.931 1145.48 705.809 1139.63 706.979C1130.42 708.734 1127.49 711.221 1127.49 716.486C1127.49 721.019 1130.27 723.213 1135.24 723.213C1143.58 723.213 1149.72 717.216 1149.86 710.05L1150.01 703.322Z" fill="#078F5B"/>
<path d="M1188.75 656.082V672.463H1222.23V683.724H1188.75V708.734C1188.75 716.339 1191.53 720.727 1197.97 720.727C1204.4 720.726 1207.32 716.485 1207.32 708.88V693.084H1222.23V710.343C1222.23 723.213 1214.92 734.621 1197.82 734.621C1179.98 734.621 1172.96 723.359 1172.96 710.196V656.082H1188.75Z" fill="#078F5B"/>
<path d="M1244.9 672.463V709.904C1244.9 717.509 1248.26 721.165 1255.13 721.165C1263.17 721.165 1267.56 715.462 1267.56 707.418V672.463H1283.35V733.012H1268.29V724.529C1264.05 731.403 1257.76 734.621 1249.43 734.621C1237.29 734.621 1228.81 725.699 1228.81 712.39V672.463H1244.9Z" fill="#078F5B"/>
<path fill-rule="evenodd" clip-rule="evenodd" d="M1363.03 670.854C1382.18 670.854 1388.91 679.483 1388.91 694.693V733.012H1373.99C1373.55 731.549 1373.12 729.502 1372.97 727.6C1369.17 731.842 1362.74 734.621 1354.69 734.621C1340.81 734.621 1334.37 727.893 1334.37 718.094C1334.37 700.543 1346.07 698.496 1362.3 696.302C1370.34 695.278 1372.53 693.669 1372.53 689.428C1372.53 685.479 1368.58 683.139 1362.3 683.139C1354.99 683.139 1352.06 686.649 1351.33 692.207H1336.42C1336.71 679.629 1343.58 670.854 1363.03 670.854ZM1372.82 703.322C1371.22 704.931 1368.44 705.809 1362.59 706.979C1353.38 708.734 1350.45 711.221 1350.45 716.486C1350.46 721.019 1353.23 723.213 1358.2 723.213C1366.54 723.213 1372.68 717.216 1372.82 710.05V703.322Z" fill="#078F5B"/>
<path d="M847.662 651.255V681.969H879.534V651.255H896.786V733.012H879.534V696.302H847.662V733.012H830.556V651.255H847.662Z" fill="#078F5B"/>
<path d="M919.594 672.463V733.012H903.657V672.463H919.594Z" fill="#078F5B"/>
<path d="M1306.45 650.232V733.012H1290.37V650.232H1306.45Z" fill="#078F5B"/>
<path d="M1329.26 650.232V733.012H1313.17V650.232H1329.26Z" fill="#078F5B"/>
<path d="M1412.01 650.232V680.36C1414.35 674.949 1421.66 670.854 1429.84 670.854C1442.27 670.854 1450.9 678.02 1450.9 690.159V733.012H1434.67V695.425C1434.67 686.357 1431.6 683.578 1424.43 683.578C1416.39 683.578 1412.01 690.16 1412.01 698.35V733.012H1395.92V650.232H1412.01Z" fill="#078F5B"/>
<path d="M517.845 497.557C540.551 483.104 566.386 485.513 587.929 501.612C596.112 507.714 604.537 517.108 611.838 524.535L657.972 570.943C676.024 589.129 692.311 601.615 692.913 629.877C693.474 656.935 677.067 672.071 659.616 689.454C652.235 696.841 645.174 703.946 637.833 711.051C630.813 706.676 622.549 695.395 615.689 689.654L596.394 670.223C600.004 666.289 604.015 662.555 608.026 658.581C620.503 646.257 630.452 631.242 621.346 619.279C589.333 584.874 621.345 619.279 589.333 584.874C551.904 542.641 546.408 550.268 510.945 584.753C488.841 563.195 488.199 560.184 470.227 543.203C478.571 533.969 508.378 503.619 517.845 497.557Z" fill="#078F5B"/>
<path d="M552.305 672.352C554.432 664.925 560.048 661.874 568.633 664.684C572.484 665.928 582.914 668.297 587.167 669.822C589.212 670.545 588.41 672.552 588.089 674.92C581.309 674.519 574.85 671.709 569.675 669.983C555.194 665.246 561.251 672.833 552.305 672.352Z" fill="#078F5B"/>
<path d="M521.817 668.136C531.084 665.888 545.405 658.1 549.417 672.191C543.199 672.512 545.565 670.144 541.434 668.859C535.376 666.49 526.51 674.038 513.593 674.319C513.111 667.494 515.238 669.742 521.817 668.136Z" fill="#078F5B"/>
<path fill-rule="evenodd" clip-rule="evenodd" d="M550.901 565.604C552.746 566.728 554.913 568.535 554.913 572.148L554.872 646.819C555.955 645.976 557.4 645.534 559.285 645.494L559.406 582.144C570.237 585.878 567.189 601.535 567.189 613.337V646.819C567.67 646.979 568.152 647.1 568.673 647.26C569.716 647.622 570.679 647.863 571.521 648.104L571.962 591.578C574.971 594.108 578.26 595.473 579.343 601.213L579.424 649.749C580.387 650.191 580.868 651.034 581.911 653.283C583.796 657.538 586.083 662.596 587.527 666.852C571.4 664.644 565.343 655.731 552.265 665.607C551.904 659.184 551.744 654.206 552.586 650.793H548.694C549.417 653.925 549.657 658.662 549.497 665.647C543.52 661.833 542.236 659.023 532.407 662.074C526.43 663.881 520.814 666.009 514.195 666.892C515.398 662.998 518.206 656.373 520.171 652.68C520.853 651.355 521.255 650.592 521.616 650.191V617.913C521.616 607.034 519.129 595.794 529.519 592.1L529.439 648.304C531.043 647.943 532.528 647.541 533.892 647.18V595.754C533.892 587.042 536.619 585.958 541.473 582.385L541.795 585.075L541.835 645.413C544.081 645.213 545.806 645.574 547.01 647.02V571.907C547.01 569.378 549.096 566.448 550.901 565.604ZM540.953 657.096C537.463 656.895 520.252 661.512 520.252 661.512C519.691 661.833 520.132 662.395 520.493 662.515C520.854 662.596 534.694 658.862 538.786 658.34C542.918 657.818 544.763 659.264 545.967 660.469C547.17 661.673 548.254 660.87 547.131 659.625C546.007 658.421 544.442 657.337 540.953 657.096ZM561.01 657.096C557.52 657.337 555.955 658.421 554.832 659.625C553.709 660.87 554.793 661.673 555.996 660.469C557.2 659.264 559.045 657.818 563.137 658.34C567.269 658.862 581.109 662.596 581.47 662.515C581.831 662.395 582.272 661.833 581.711 661.512C581.711 661.512 564.5 656.895 561.01 657.096ZM540.19 653.403C536.628 653.162 521.927 657.397 521.857 657.417C521.376 657.738 521.937 658.301 522.298 658.421C522.701 658.501 534.293 655.129 538.304 654.647C542.276 654.125 544.482 655.571 545.926 656.775C547.37 657.94 548.293 657.136 546.929 655.932C545.525 654.687 543.72 653.603 540.19 653.403ZM561.772 653.403C558.242 653.603 556.437 654.687 555.033 655.932C553.629 657.136 554.552 657.94 556.036 656.775C557.481 655.571 559.687 654.125 563.658 654.647C567.669 655.129 579.258 658.5 579.624 658.421C580.025 658.301 580.587 657.738 580.106 657.417C580.037 657.398 565.294 653.162 561.772 653.403ZM540.19 649.99C536.63 649.79 523.414 653.622 523.341 653.643C522.86 653.924 523.422 654.526 523.823 654.607C524.186 654.726 534.293 651.757 538.304 651.235C542.276 650.753 544.482 652.198 545.926 653.362C547.37 654.567 548.293 653.764 546.929 652.56C545.525 651.316 543.72 650.231 540.19 649.99ZM561.772 649.99C558.242 650.231 556.437 651.316 555.033 652.56C553.629 653.764 554.552 654.567 556.036 653.362C557.481 652.198 559.687 650.753 563.658 651.235C567.67 651.757 577.776 654.726 578.14 654.607C578.501 654.526 579.102 653.924 578.581 653.643C578.494 653.618 565.291 649.79 561.772 649.99Z" fill="#078F5B"/>
<path fill-rule="evenodd" clip-rule="evenodd" d="M767.338 526.274C798.221 526.274 815.251 546.75 815.251 581.216C815.251 605.507 802.033 627.001 777.632 630.689C777.632 642.135 782.207 647.095 788.562 647.096C794.28 647.096 798.856 642.135 798.856 632.215H817.284C817.284 651.42 804.448 665.41 786.655 665.41C770.007 665.41 758.061 652.946 758.061 635.141V631.961C733.025 628.528 719.045 611.358 719.044 580.835C719.044 546.75 736.456 526.274 767.338 526.274ZM767.338 544.842C749.673 544.842 739.76 557.433 739.76 581.216C739.76 604.999 749.927 615.554 767.338 615.554C782.462 615.554 794.535 604.998 794.535 581.216C794.535 557.433 784.876 544.842 767.338 544.842Z" fill="#078F5B"/>
<path d="M919.594 650.232V665.15H903.657V650.232H919.594Z" fill="#078F5B"/>
<path d="M1203.38 526.274C1228.42 526.274 1244.3 542.298 1246.33 562.647H1225.24C1222.44 551.201 1213.42 544.46 1203.51 544.46C1186.1 544.46 1177.96 557.942 1177.96 579.817C1177.96 602.074 1186.1 615.301 1202.49 615.301C1214.82 615.301 1222.44 608.178 1225.24 595.587H1246.33C1242.01 618.479 1226.38 633.614 1203 633.614C1176.69 633.614 1156.61 615.554 1156.61 581.088C1156.61 547.004 1174.66 526.274 1203.38 526.274Z" fill="#078F5B"/>
<path d="M841.939 601.692C841.939 611.103 846.133 615.554 854.521 615.554C864.433 615.554 869.772 608.433 869.772 598.64V555.653H889.216V630.18H870.661V619.625C865.578 628.146 857.825 632.089 847.531 632.089C832.662 632.089 822.24 621.024 822.24 604.745V555.653H841.939V601.692Z" fill="#078F5B"/>
<path fill-rule="evenodd" clip-rule="evenodd" d="M1005.25 553.618C1028.89 553.618 1037.02 564.301 1037.02 582.997V630.18H1018.72C1018.21 628.273 1017.7 625.729 1017.58 623.44C1012.87 628.654 1004.99 632.089 995.081 632.089C978.051 632.089 970.172 623.821 970.172 611.612C970.172 590.118 984.533 587.702 1004.36 585.032C1014.27 583.633 1016.94 581.725 1016.94 576.51C1016.94 571.677 1012.11 568.752 1004.36 568.752C995.462 568.752 991.904 573.204 990.887 579.817H972.586C972.967 564.428 981.355 553.618 1005.25 553.618ZM1017.45 593.679C1015.41 595.587 1011.98 596.732 1004.74 598.004C993.556 600.166 989.871 603.345 989.871 609.704C989.871 615.3 993.175 617.971 999.402 617.971C1009.57 617.971 1017.07 610.595 1017.32 601.82L1017.45 593.679Z" fill="#078F5B"/>
<path fill-rule="evenodd" clip-rule="evenodd" d="M1285.35 553.618C1308.23 553.618 1320.3 568.498 1320.3 598.004H1268.96C1269.59 609.196 1275.95 616.445 1285.61 616.445C1291.96 616.445 1297.55 613.265 1298.95 608.178H1319.28C1314.71 623.44 1302.38 632.089 1286.5 632.089C1261.71 632.089 1249.38 618.48 1249.38 591.517C1249.39 568.497 1262.48 553.618 1285.35 553.618ZM1284.72 569.261C1276.84 569.261 1270.35 575.365 1269.59 585.667H1299.97C1299.71 574.603 1292.47 569.261 1284.72 569.261Z" fill="#078F5B"/>
<path d="M1422.61 555.653H1463.66V569.515H1422.61V600.166C1422.61 609.577 1425.91 615.046 1433.92 615.046C1441.8 615.046 1445.36 609.704 1445.36 600.42V581.088H1463.66V602.328C1463.66 617.971 1454.63 632.089 1433.66 632.089C1411.8 632.089 1403.16 618.225 1403.16 602.073V535.558H1422.61V555.653Z" fill="#078F5B"/>
<path fill-rule="evenodd" clip-rule="evenodd" d="M1506.1 553.618C1528.85 553.618 1541.05 568.498 1541.05 598.004H1489.71C1490.35 609.196 1496.7 616.445 1506.36 616.445C1512.71 616.445 1518.31 613.265 1519.7 608.178H1539.91C1535.46 623.439 1523.13 632.089 1507.25 632.089C1482.47 632.089 1470.01 618.48 1470.01 591.517C1470.01 568.497 1483.23 553.618 1506.1 553.618ZM1505.47 569.261C1497.59 569.261 1491.11 575.366 1490.35 585.667H1520.72C1520.47 574.602 1513.22 569.261 1505.47 569.261Z" fill="#078F5B"/>
<path d="M941.069 573.839C939.163 573.457 937.383 573.331 935.604 573.331C923.403 573.331 917.557 579.436 917.557 591.391V630.18H897.858V555.653H916.413V564.555C922.895 554.635 930.393 553.618 938.399 553.618H941.069V573.839Z" fill="#078F5B"/>
<path d="M1088.49 553.618C1102.72 553.618 1113.15 562.266 1113.15 578.545V630.18H1093.32V585.032C1093.32 573.458 1090.02 570.278 1080.61 570.278C1070.32 570.278 1065.36 576.128 1065.36 587.447V630.18H1045.66V555.653H1064.47V566.59C1069.05 558.196 1076.54 553.618 1088.49 553.618Z" fill="#078F5B"/>
<path d="M1369.87 553.618C1384.1 553.618 1394.52 562.266 1394.52 578.545V630.18H1374.7V585.032C1374.7 573.458 1371.39 570.279 1361.99 570.278C1351.82 570.278 1346.74 576.128 1346.73 587.447V630.18H1327.04V555.653H1345.85V566.59C1350.42 558.196 1357.92 553.618 1369.87 553.618Z" fill="#078F5B"/>
<path d="M1591 573.839C1589.09 573.457 1587.31 573.331 1585.53 573.331C1573.33 573.331 1567.49 579.436 1567.49 591.391V630.18H1547.79V555.653H1566.34V564.555C1572.83 554.635 1580.32 553.618 1588.33 553.618H1591V573.839Z" fill="#078F5B"/>
<path d="M966.995 540.899C966.995 558.069 961.911 566.208 946.152 569.515V562.012C953.904 559.977 957.716 555.525 957.844 545.987H946.152V525.511H966.995V540.899Z" fill="#078F5B"/>
</svg>
