<svg width="165" height="165" viewBox="0 0 165 165" fill="none" xmlns="http://www.w3.org/2000/svg">
  <path d="M103.188 21.6615C105.482 19.2564 109.495 16.1642 114.541 16.7369L114.656 133.674H132.086C135.297 137.682 136.902 139.973 141.719 143.18C143.668 144.44 145.733 145.585 148.141 146.501C150.663 147.532 155.25 148.334 155.709 148.677C147.453 149.021 138.049 148.677 129.678 148.677C124.059 148.677 80.3701 149.021 78.6481 148.219C73.6024 145.929 68.442 140.431 67.4099 133.674H99.4039C99.9773 131.04 99.5188 120.617 99.5188 117.296L99.6333 34.6039C99.6333 28.9918 100.092 24.8684 103.188 21.6615Z"/>
  <path d="M52.2728 21.6615C55.0249 18.4547 59.1533 16.2786 63.6255 16.6221L63.511 148.563C60.8734 148.792 30.5999 148.563 25.21 148.563C20.5083 148.563 17.9854 149.021 13.9718 147.188C10.761 145.814 8.35296 143.981 6.63287 141.805C3.88069 138.599 2.73356 136.881 2.73356 133.101C2.84823 124.855 2.3898 115.692 2.84849 107.675C3.30714 108.248 3.76568 109.164 4.22433 109.851C7.32052 114.776 10.4168 117.868 15.2331 121.075C16.0358 121.533 16.8387 121.877 17.5267 122.449C17.6414 124.969 17.1828 131.956 17.7561 133.674C19.2472 134.132 30.5993 133.788 33.1223 133.788H47.686L48.4888 133.445C48.8328 132.295 48.7179 70.6825 48.7179 67.7035V34.6039C48.7179 28.5337 48.9472 25.5556 52.2728 21.6615Z"/>
  <path d="M132.889 94.8476C133.118 95.0766 133.233 95.4202 133.462 95.7638C135.297 98.9706 138.049 101.49 141.145 103.323C141.948 103.781 142.407 104.01 143.324 104.468C144.241 104.812 144.586 104.812 145.388 105.384C144.356 111.913 144.012 116.609 148.714 122.679C151.925 126.916 155.594 129.207 162.36 130.81L162.245 147.303C155.594 147.647 148.943 145.012 144.586 142.149C139.884 139.171 136.329 135.392 133.348 130.352C130.481 125.428 128.417 119.357 128.187 112.6C127.958 106.415 129.334 98.1687 132.201 93.8165L132.889 94.8476Z"/>
  <path d="M88.7391 16.5077V96.3365C89.0831 97.0237 91.1476 96.68 92.6384 96.68H96.7663C96.7663 99.1997 97.1105 107.56 96.6518 109.278L88.7391 109.393V121.648C84.3815 120.732 80.8268 118.212 78.0747 115.234C76.8133 113.86 75.6666 112.371 74.7492 110.309C73.4878 107.561 73.8318 105.957 73.8318 102.75L73.9464 35.4053C73.9463 29.4497 73.2582 25.3265 76.469 21.0888C79.1065 17.5384 82.6615 16.3932 88.7391 16.5077Z"/>
  <style>
    path { fill: #005461; }

    @media (prefers-color-scheme: dark) {
      path { fill: #F58634 ; }
    }
  </style>
</svg>
