<svg width="48" height="48" viewBox="0 0 48 48" fill="none" xmlns="http://www.w3.org/2000/svg">
<g clip-path="url(#clip0_75_30)">
<path fill-rule="evenodd" clip-rule="evenodd" d="M22.1714 47.0786C24.0474 47.6427 26.8089 47.3475 28.6849 46.1275C29.4983 45.7011 30.2592 44.9074 30.8496 44.6975L32.4435 46.2652C35.0738 49.2695 40.1049 42.8609 39.3834 41.1095C38.8324 39.7714 31.2759 33.1135 30.397 31.7557C28.4685 32.6872 27.2943 36.3473 23.2865 35.7767C21.5876 35.5274 20.5775 34.4582 19.7838 33.6711C18.9442 32.838 17.8487 31.8541 17.1403 30.9948C15.953 29.8338 14.8511 28.8105 13.7622 27.6298C13.3358 27.1772 12.7061 26.3901 12.4372 25.557C11.7025 23.3203 12.5684 21.582 14.1098 19.9946C14.7264 19.3649 15.9137 18.4204 16.2876 17.607C12.9291 14.3797 11.427 12.7333 9.59694 11.1328C8.94099 11.4739 7.73405 12.8579 7.09123 13.4811C1.74528 18.6565 -2.66923 24.724 3.96237 31.3097C8.5999 35.9079 16.7271 45.7208 22.1714 47.0786Z" fill="#078F5B"/>
<path fill-rule="evenodd" clip-rule="evenodd" d="M33.4946 28.4955C32.8387 29.1449 32.1827 29.7549 31.5924 30.3977L34.7475 33.5725C35.8691 34.5105 37.2204 36.3537 38.3683 37.0687C39.5687 35.9077 40.7231 34.7467 41.9301 33.5397C44.7834 30.6995 47.4662 28.2266 47.3744 23.8055C47.276 19.1876 44.6129 17.1476 41.6611 14.1762L34.1178 6.5935C32.9239 5.38 31.5464 3.84509 30.2083 2.84805C26.6859 0.217709 22.4616 -0.175858 18.749 2.18554C17.2009 3.17602 12.3273 8.13497 10.9629 9.64364C13.9015 12.4183 14.0065 12.9102 17.6207 16.4327C23.4193 10.7981 24.3179 9.55181 30.4379 16.4523C35.6723 22.0738 30.4379 16.4523 35.6723 22.0738C37.1613 24.0285 35.5346 26.4817 33.4946 28.4955Z" fill="#ACCE22"/>
</g>
<defs>
<clipPath id="clip0_75_30">
<rect width="48" height="48" fill="white"/>
</clipPath>
</defs>
</svg>
